<svg xmlns="http://www.w3.org/2000/svg" viewBox="0 0 1862.14 192.46"><defs><style>.cls-1{fill:#0756a5;}.cls-2{fill:#fff;}.cls-3{fill:#fee000;}</style></defs><title>logo</title><g id="Layer_2" data-name="Layer 2"><g id="Ellipse_1" data-name="Ellipse 1"><circle class="cls-1" cx="96.23" cy="96.23" r="96.23"/></g><path class="cls-2" d="M1032.58,1734.53c.42,2.42,1.72,2.89,2.53,3.79s-.49,2.71-1.28,3.11-1.72-2.16-3-5a14.52,14.52,0,0,0-6.06-6.81c-2.61-1.34-8-10.26-8.9-12s1.25-4.58,3.74-5.18,1.76,1.41,7.67,2.83c6.44,1.55,6.18-1.48,11.66-3,6.17-1.68,3.58-2.68,5.41-3.87,11.43-8.36,2.71-4.83,6.76-7.69s3.18-2.87,4.11-5.83c1-3.29,1.48-1.65,5-8.71,3.67-7.27-.57-1.39-.09-8.64s-1.3-5.53-1.3-5.53c-.73.71-2.46,1.53-3.39.7-1.62-1.46-4.09,2.57-5.9,1.7-2.6-1.26-6.17,8.56-9.06,7.92-1.15-.25-1.31,1.19-1.72,2.46a9,9,0,0,1-3.06,4.18c-1.63,1.25-2.1.09-3.21,1.11s-1.39.89-2.14,1.86-.37,2.14-2,1.76-1.44.28-2.32,1.35a9.62,9.62,0,0,1-2,1.79c-2.57-.42-1.77,6.41-2.23,9s-4.45,3.56-4.45,3.56-.28.49-.77-1.54,2.09-2,3.52-6-3.9-9.69-8.82-5-1,8.82.73,9.79a4.83,4.83,0,0,1,2,3.37c-1.6,1.37-.25,3.7-2,3.07-2.77-1-4.9-10.21-4.69-12.39a66.77,66.77,0,0,0-.44-11.38,19.25,19.25,0,0,1-.93-4.94c.05-1.63,3.74-3,5.25-3.35s3.14,3.14,4.65,3.21,1.32-1.65,2.32-.54,2,.54,5.06.82,2.77-.54,4.55-2.28a7.57,7.57,0,0,1,4.44-1.86c2.33-1,2.68-5.85,4.25-3.87s2.71-1.46,3.9-4.15,7.45-3.72,7.35-8,1.54-4,1.11-6.68,0-1.85,1.09-3.52-.32-1.75-.42-3.52,1.74-2.62,1.64-4.36.83-1.7.21-2.89a4.72,4.72,0,0,1-.21-2.85c.21-1.57,1.39-2.75.31-2.93s-1-1.6-.65-4.11-2.93,0-5.4.49a5.21,5.21,0,0,0-4.41,4.21,2.83,2.83,0,0,1-2,2.41c-2.69.88-2,1.57-4,3.37s-1.49.41-2.42,2.46-.93,2.27-3.52,4.13-2.42,3.21-3,4.27-2,.66-3.52,4.42-2.93,3.06-5,3.67-.24,2.55-2.32,9-6.81,5.43-6.81,5.43c-.42-.81.36-3,.36-3a10.86,10.86,0,0,0,2.09-1.11c1.63-1,2.68-4.53,2.83-5.75.27-2.32-1.35-5.24-3.68-5.57a5.61,5.61,0,0,0-5.92,3.71c-1,2.67,1.14,7.14,1.54,7.72s.26.32.14,1.74a1.81,1.81,0,0,1-1.23,1.7c-1.39-.61-1.7-2.89-2.42-5.21s-.53-5.13.33-6.57.79-2.9,2.07-4.21a26.6,26.6,0,0,0,3.9-6.25c.28-1,2.73-5.41,2.73-5.41.75-1.76,2.79-3.61,3.82-6.71s1.36-1.49,2.12-2.79,3.06-3.07,3.44-2.44.37.22,1.51-.41,4-.08,4-.08c2.27.63,3.76.61,4.6.16a12.92,12.92,0,0,1,4.85-1.58c1.36-.22,1.36-1.16,2.07-1.25,1-.15,1.35-.26,2-1.56.35-.66,1.25-.19,2-1.37s1.19-4.12,4.63-5.31,3.17-2.12,3.66-3.24.77-.17,1-2.55,1.56-2.62,3.19-4.53c2.52-3-.2-1.6,0-3.52,0-2.82-1.57-1.48-1.57-1.48-2.55,1.44-2.6-.24-3.56-.91s-2.94,1.37-4.76,3.18-4.32.33-6.25,3.33-3.83,3.69-6.31,4.45-3.51,1.39-3.39,4.28a7.25,7.25,0,0,1-2.46,6c-1.49,1.46-4.32,2.37-4.35,1.7s.1-.22,2.56-1.72a4.53,4.53,0,0,0,2.05-4.3c-.18-1.7-.38-2.75-2-3.52-2.15-1-4.31.7-5.63,3.48-1.24,2.61.25,5.34.39,5.67s.56,1.6.56,1.6c-.23.7-2.16,2-2.16,2,.07-.75.12-1.14-.72-4.16s.52-6.09,2-8a24.63,24.63,0,0,1,4.16-3.88c.9-.84.69-.24,2.57-3s3.86-3,6.21-3.58a29.73,29.73,0,0,0,4.37-1.39c1.39-.51,4.11-.42,6.15-2.58s3.64-2.67,6.34-4a9.87,9.87,0,0,0,3.41-2.25c1.75-2.35,1-3,1.76-4.2,1.44-2.65.3-1.93-1-1.9s-1.49.72-3,.93-.88.66-3.81.58-2.81.41-4,1.4a8.68,8.68,0,0,1-4.14,2.31c-2.84.95-2.87,2.16-2.87,2.16a5.46,5.46,0,0,1-1.2,2.06,7.46,7.46,0,0,1-.79.69,6.06,6.06,0,0,1-1.56,1.38c-1.09.64-2.1,2.34-2,1.14a6.68,6.68,0,0,1,.48-1.9,36.6,36.6,0,0,1,1.8-3.51,10.43,10.43,0,0,1,2.43-2.72c1.08-1,2.5-1.11,3.68-1.73s1.45-1.67,2.15-2.92.28-.91-.58-1-.73.28-1.3.26a1.45,1.45,0,0,0-1,.19,4,4,0,0,1-.59.27c-1.45.23-2.05,1.88-2.77,2.62s-1.63.84-1.17.4,1-2,2.26-3.21,3-1.76,5.34-3.11,3.16-2.43,3.58-3.6-.84-.25-1.79,0a9.77,9.77,0,0,1-2.16.24c-3.88-.08-5.8,2.75-6.51,3.66-1.88-.08-3.42,3.14-4.15,5.57s.35,4.15-.83,5.34-.52,1.36-1.23,2.65-.55,2.82-.8,4.25-1.57,1.74-1.08.8a3.33,3.33,0,0,0-.81-3.93c-1.36-1.12-1.57.69-3.31,2.15s-1.18,4.61-1.36,5.82-1.05.85-1.05.85c-.79-1-.21-2.69,0-3.81a9.19,9.19,0,0,1,1.56-3.51,7.4,7.4,0,0,0,1.6-2.71c.19-1,0-1.39.54-2.32s1.74-1.51,2.76-3-.18-2.51,1.82-4.21,2.36-2.73,3.34-3.62c1.34-1.22,1.38-1.59.93-1.79s.63-.91.1-1.21-2.24,1-4,1.17-1.73,1.55-3.6,1.32-3.22,1.63-3.65,1.54c-.14,0-.71-1.05-1.44.61-.41.93-.53,1.28-1.07,1.53a1.9,1.9,0,0,0-1.44,1.72c-.19,1.33-.18,1.42-1.42,2s-2,2.14-1.5,4.07.18,2-.3,4.35.51,3.78,1.22,3.9.58.46.58.46c-.53,1.64.24,2.09.84,3a6.54,6.54,0,0,1,.28,5,11.87,11.87,0,0,0-.82,3.48,8.25,8.25,0,0,1-.88,2.48c-.44,1.2-.35,2.19-.38,4.33-.08,3.12,1,2,.35,3.91s-1.14,3.24-1.6,4.51a10.71,10.71,0,0,1-1.43,3.19,15.87,15.87,0,0,0-2.21,4.32c-.56,1.68-2.3,3.31-3.52,6.45a15.24,15.24,0,0,1-4.18,5.54,11.36,11.36,0,0,0-1.38,2.65,1.87,1.87,0,0,1-1,1.47c-.39.07-1.23-.77-1-1.44a4,4,0,0,0,.14-1.33,5.32,5.32,0,0,1,1.21-2.95,7.59,7.59,0,0,0,2.27-.51,5.71,5.71,0,0,0,2-1.86c1.64-2.2,1.14-6.2-.46-7a2.74,2.74,0,0,0-2.49-.82c-1.06,0-2-.44-4.15,1.49-2.43,2.16,0,7.14,0,7.14.16,3.34-.93,3-.93,3-.37-.94-1.79-.66-2.51-3.67a9.14,9.14,0,0,1,1-6.43c.43-.88,3.29-2.85,3.56-4.11.35-1.6-1.45-.68-1.41-1.52a3.8,3.8,0,0,1,.62-1.48c2.18-2.6,2.19-8.11,2.19-8.11,2.48-2.16,1.64-3.54,1.64-3.54a2.71,2.71,0,0,0,.82-2.16c.07-.54.85-1,1.2-1.79s3-3,3.84-3.9a3.9,3.9,0,0,0,1.09-2.6c.12-1.11-.23-2.22.61-3.62.93-1.58-.55-2.27-1.63-3.09-.44-.34-.29-1-.12-1.68a5.36,5.36,0,0,1,.85-2.28c1.27-1.47.18-1.57.95-2.59a7.11,7.11,0,0,0,1.07-2.14c3.14-4.71,1.11-3.83.16-3.4s-1.28.66-2.14.17a1.12,1.12,0,0,0-1.43.22c-1.43.3-1.3,1.44-3,1.44s-3.31,2.16-4.71,3.44-1.95,1.23-2.37,2-.63.91-.63.91c-2.09,1.64-1.43,2.59-2.1,2.89s-.74-1.3-2.07-.09-1,2.37-2.43,3-3,2.94-3.86,6.35c-.61,2.51-2.54,3.13-2.83,2.57-.52-1-2,.34-2,2.09,0,.94-.4,1.42-1.72,2.77s-1,2.32-1,2.32c-2.32.18-.69,2.85-.69,2.85,0,1.15-.17,1.31.27,1.77a8.53,8.53,0,0,1,.54,5.62c-.63,1.63-.28,1.18-.18,3.28s-.75,2.88.09,3.95,2.23,5.71,4.09,6.2,1.7,1,1.7,1c.46.29-.45,2.13.21,2.79,1.22,1.21,3.72,1.08,5.09.82a4.82,4.82,0,0,1,3.18.18,2.1,2.1,0,0,1,1.51,1.53c.41,3,1.16,2.14,1.67,3.49a8.46,8.46,0,0,0,2.14,3.62c1,1.11,3.22,6.78,3.22,6.78.52,1.55,1.74,3,1.71,5.65s.13,3.05.69,4.41.38,2.55.56,4.18-.27,2.81.11,4.27a19.77,19.77,0,0,1,0,4.77,3.65,3.65,0,0,1-1.59-1.15c-.46-.74-1.24-.49.1-2.81s-.58-4.53-.58-4.53a10.27,10.27,0,0,0,.3-4.34c-.37-2.24-1.9-4.12-5.2-4.12-3.53,0-4.41,1.91-4.67,5.14s2,4.25,2,4.25a7,7,0,0,0,5.11.89s.3,0,.7,1-.26.77-.79,2-2.42.79-5.9-.86-2.65-10.24-2.65-10.24c.4-2.68.44-4.35-.42-5.37a16.5,16.5,0,0,1-2.42-5.73c-.07-1.18-.91-.92-2.93-2.13s-2.39-3.23-3.32-3.51-1.88-1-1.81-1.92a3.18,3.18,0,0,0-.38-2.12,7.66,7.66,0,0,1-.41-2.55c-.32-1.22-2-1-2.28-2.39-.66-3.43-1.28-2.24-1.37-5.88s-2-2.49-1.72-4.18c.52-3-2.63-1.26-3.49-.08-1.07,1.49-.4,2.61-.79,2.65-1,0-2-2.12-2.35.32-.15,1.12.65,2.06-.18,2.94-.46.49-1.63,1-1.42,2.32s-.23,1.6-.65,3.19c-.35,1.3,1.65,5.16.59,5.9s-.59,1.41-.41,2.8.21,4.63.21,4.63c-1.14,1.16-1.6,2.21-1,4.74s.26,2.23-.14,4.9,1.17,1.37,1.56,5,.46,1.32,1.46,4.23,7.11,7.34,7.11,7.34c-.26,3.32,1.5,2.29,1.5,2.29,3.67,3.05,7.93,2.22,8.57,2.51,1.44.54.46,1.83,1.37,2.63.61.55,2.44-.89,4.69-.3,2.47.64,4-1.92,4-1.92,1.15-1.42,4.44-3.14,6.41-1.48,2.37,2,2.68,2,2.68,2a9.72,9.72,0,0,0,1.69,2.86c.47.26.38.19.86,1.22s.1,2,.6,2.52.51,1.81,1.44,3.25a33,33,0,0,0,4.39,4.35c.49.31.35.24,1.31,1.78s2.89,2.82,3.08,4,2.63,4,2.86,4.3.15.63.38,1,.38.34,1.79,1.26a2.51,2.51,0,0,1,.54,3.49,3.3,3.3,0,0,1-3.24-.86c-.53-.58-.15-2-.13-2.19,0-.36.06-5.76-5.43-6.64-1.38-.22-6.57-.26-5.83,5.36.61,4.74,7.39,5.39,8.65,5s1.54.64,1.31.93c-.36.46-.8.38-2.8.63a4.83,4.83,0,0,1-3.31-.75c-.66-.24-1.39,0-1.75-.28s.54-.14.69-.45.21-.51-1.37-.37-2.08-1.39-3.28-2.49-1-1.91-1.06-3.88-.68-1.82-1.78-2.35a2.73,2.73,0,0,1-1.34-1.09c.13-2.13-.91-2.37-1.3-2.61a3,3,0,0,0-1.2-.25,1.29,1.29,0,0,0-1.31-.55c-.59,0-.57-.21-.57-.21a3.74,3.74,0,0,0-1-2.93l-1.14-1a4.54,4.54,0,0,0-2.16-2.07,4.61,4.61,0,0,0-3.11-4.24c-.67-.08-1.1-.9-2.81-1.17-.48-.08-2.47.33-3.15,0s-.74.16-1,.35a8.13,8.13,0,0,1-2.18,0c-.48,0-1.53-1-2.14-1.58s-1.21.26-1.21.26-3.3-3.78-3.6-4-.7.41-.7.41c-1-.17-.44.13-1.35.33s-1.11-.14-1.18-.39-.34-.36-.52-.57a1.06,1.06,0,0,1-.23-.53c-.19-.24-.5.3-.5.3-1.27.22-.88,1.26-.73,1.84s1.25,1.85,1.36,3.18a7.57,7.57,0,0,0,1.31,3.33,3.13,3.13,0,0,1,.32,2.38c-.08.7,3,3.63,3.47,4.24s.28.83.51,1.43,1,.41,1,.41a2,2,0,0,0,.63.93,26.6,26.6,0,0,0,3.62,4.49c1.09,1.9,7.8,8.33,8.19,8.6s.1,1.42,1.44,1.8a5,5,0,0,1,2.34,1.31c0,1.15.48.79,1.07.84.73.73,4.41,4.35,5.59,4.73a28.41,28.41,0,0,0,4.82,3.6c1.45,1,1.36.54,1.72.56s1.55,1.21,2.67,1.8,1.21.13,1.43,0a2.8,2.8,0,0,1,1.83.4c.57.37.84-.48.84-.48.57.3.71-.41,1-.7s.53.86,1.3.74.53-1.51.52-2.17,2.24-2.06,3.27-1.8,1.81-.8,1.31-1.41a4.09,4.09,0,0,1-.61-2.16,5.68,5.68,0,0,1,1.78-3.08,17.43,17.43,0,0,0,1.83-1.53c.51-.44,3.93-.82,4.28,0a5.31,5.31,0,0,0,1.3,2,4.64,4.64,0,0,1,.92,1.61s1.29,2.23,1.55,2.89a41.42,41.42,0,0,0,2,4.05,3.3,3.3,0,0,1,1.16,2.33c.94,2,2.11,4.71,2.16,4.94a3.64,3.64,0,0,0,.55,1.7c.58,1.23,1.18.93,1.18.93a1.26,1.26,0,0,0,1.2.37c.37,0,.62,1.09,1,.61a1.1,1.1,0,0,1,1.34-.38,2.63,2.63,0,0,0,2,.12c.44-.3-.21-.63.21-.65s.24-1.09,0-1.49a12.75,12.75,0,0,0-.65-1.28,75.47,75.47,0,0,1-4.8-8.8c-.53-1.31.18-3.62,1.69-4.93a5.35,5.35,0,0,1,6.28-.6c3.59,2.38,2.61.32,9.23-.31s12.64-3.62,13-6.13a10,10,0,0,1,3-5.3c1-1.19,2-3.76,4.83-4.11s2.32-2,4.28-5c1.82-2.69,1-6.12,3.9-7,4.3-1.28.78-.28,3.23-3.8.7-1,1.06-2.49,2-3.5s2.88-1.63,3-2.6c.12-.73-.84-1.43-1-2.14-.62-3-2.28-2.32-2.4-4-.07-.93,1-2.21.61-3-1.58-3.06-.31-4.62-2.56-3.55-4.12,2-2.09-2.34-7.64-.81-3.73,1-1.6-4.07-6.17,2.34-3.08,4.31-4.61,4.12-6.49,4.61s-.55-.74-4.6,5.36-7.18,1.39-12.27,9.7c0,0-1.5,3.28-3.93,3.77-2.13.43-1.82,7.85-2.78,9.25-1.91,2.75-.26,2.55-1.18,6a16.92,16.92,0,0,1-.93,4c-.86,1.68-2.34,2.36-3.1,1.54-.6-.64-2-1-.56-2.41A9.47,9.47,0,0,0,1039,1731c1.34-3.52-.18-9.24-5.34-9-1,0-5.06.74-5,7.2C1028.69,1732,1032.48,1734.5,1032.58,1734.53Z" transform="translate(-949.64 -1578.01)"/><path class="cls-3" d="M1020.17,1724" transform="translate(-949.64 -1578.01)"/><path class="cls-2" d="M1049.43,1731.74l-.12-2.18c-.73.06-1.45.1-2.18.13l.12,2.18,1.55,26.72.13,2.18c.74,0,1.46-.1,2.18-.15l-.13-2.18Z" transform="translate(-949.64 -1578.01)"/><path class="cls-2" d="M1072.68,1674.91c0-.32,0-.63,0-1a27.65,27.65,0,0,0-3.55-13.56l6.87-4.55a35.81,35.81,0,0,1,4.13,10.66c.15.71.25,1.43.36,2.16l2.14-.41,36.24-7c.4,2.33.71,4.68.89,7.07,0,.73.11,1.45.15,2.18l2.18-.11,7.39-.37,2.18-.11c0-.73-.1-1.45-.15-2.18l-2.18.11-7.39.37c-.18-2.49-.51-5-.93-7.37l7.3-1.41,2.14-.41c-.12-.71-.24-1.43-.39-2.15l-2.14.41-7.32,1.41c-.47-2.32-1-4.6-1.69-6.84l7.12-2.11,2.09-.63c-.21-.7-.42-1.39-.65-2.08l-2.09.62-7.11,2.11-2.1.62c.23.69.44,1.39.65,2.09.65,2.17,1.18,4.39,1.64,6.63l-36.18,7a38.35,38.35,0,0,0-4.46-11.46c-.37-.62-.76-1.23-1.17-1.84a38.54,38.54,0,0,0-8-8.69l4.32-6a46.33,46.33,0,0,1,4,3.51c.52.51,1,1.05,1.5,1.59l1.6-1.49,5.85-5.41a55.83,55.83,0,0,1,4,4.91c.43.59.81,1.22,1.22,1.82l1.78-1.25,6.08-4.25c1.08,1.6,2.12,3.24,3.05,4.94.36.64.68,1.28,1,1.93l1.93-1,6.66-3.52c.36.69.74,1.37,1.08,2.08s.61,1.33.89,2l2-.87,6.81-2.95,2-.87c-.29-.67-.59-1.34-.9-2l-2,.88-6.81,2.95c-.36-.76-.77-1.49-1.15-2.24s-.65-1.3-1-1.94-.84-1.43-1.27-2.16l6.47-3.74,1.89-1.1c-.38-.63-.75-1.25-1.14-1.87l-1.88,1.1-6.45,3.74-1.89,1.1c.39.61.74,1.25,1.11,1.88s.84,1.38,1.24,2.09l-6.67,3.52c-1-1.78-2.07-3.5-3.19-5.17-.41-.61-.82-1.21-1.24-1.8-1.16-1.6-2.4-3.13-3.7-4.63l5.47-5.21c.56.63,1.12,1.25,1.65,1.91s.89,1.15,1.34,1.73l1.69-1.37,5.82-4.69,1.7-1.37c-.45-.58-.89-1.15-1.35-1.71l-1.7,1.37-5.79,4.68c-1.53-1.89-3.17-3.68-4.87-5.41l5.06-5.5,1.48-1.61c-.52-.52-1-1-1.58-1.51l-1.47,1.61-5,5.49-1.48,1.6c.53.51,1,1,1.55,1.55s1,1.08,1.53,1.62l-5.44,5.2-1.58,1.51c.49.53,1,1.09,1.43,1.64,1.22,1.42,2.4,2.86,3.49,4.37l-6.05,4.23a56.25,56.25,0,0,0-4.21-5.15c-.49-.53-1-1-1.52-1.57a59.71,59.71,0,0,0-4.95-4.45l4.53-5.86,1.34-1.73,4.61-6,1.34-1.73,4.54-5.89,1.33-1.72c-.57-.46-1.13-.91-1.72-1.35l-1.33,1.73-4.57,5.91-1.33,1.73-4.62,6-1.33,1.73-4.51,5.85-1.33,1.73c.58.43,1.15.88,1.72,1.33a56.5,56.5,0,0,1,4.67,4.21l-5.82,5.4a45.92,45.92,0,0,0-4.34-3.8c-.57-.45-1.16-.88-1.75-1.31a52.13,52.13,0,0,0-4.82-3l3.61-7.08,1-2,3.36-6.59,1-2,3.42-6.72c.75.4,1.5.77,2.23,1.2s1.25.74,1.87,1.13l1.1-1.88,3.8-6.43,1.11-1.88c-.62-.38-1.25-.74-1.88-1.11l-1.11,1.88-3.78,6.41c-.77-.44-1.57-.85-2.35-1.26s-1.27-.71-1.93-1-1.43-.68-2.16-1l2.84-6.9.83-2c-.67-.3-1.32-.61-2-.9l-.83,2-2.83,6.9-.83,2c.68.28,1.33.6,2,.91s1.34.6,2,.93l-3.45,6.78-1,1.94-3.35,6.58-1,2-3.6,7.07-1,2c.66.32,1.3.65,1.94,1a46,46,0,0,1,4.53,2.85l-4.3,6-1.27,1.78c.59.42,1.17.86,1.74,1.31a36.59,36.59,0,0,1,7.43,8.13l-6.84,4.54a27.92,27.92,0,0,0-12.42-10.19c-.66-.27-1.35-.52-2-.74a29.57,29.57,0,0,0-3.86-1l1.16-8.2.31-2.16,1-7.29.31-2.21,1.12-7.85.13-1,.17-1.18,1-7.31c1.23.19,2.45.42,3.65.68.71.16,1.43.32,2.13.5l.58-2.11,2-7.29c.64.17,1.29.3,1.93.48l2.1.61.73-2,2.48-7,.74-2.06c-.7-.22-1.39-.43-2.1-.63l-.73,2.06-2.49,7c-.69-.2-1.39-.34-2.08-.53s-1.41-.37-2.12-.53-1.73-.35-2.6-.52l1.07-7.38.31-2.16c-.72-.13-1.43-.27-2.15-.39l-.32,2.16-1.06,7.38-.32,2.15c.73.12,1.44.27,2.15.41s1.57.29,2.34.46l-2,7.32c-1.29-.28-2.6-.52-3.92-.74-.72-.11-1.44-.21-2.17-.3-1.21-.15-2.44-.27-3.68-.36l.25-7.59.07-2.18.25-7.41.07-2.19-2.18-.09-.07,2.18-.25,7.38-.07,2.18-.25,7.62-.07,2.18c.73,0,1.45,0,2.18.11,1.16.09,2.3.19,3.44.34l-1,7.3-.31,2.15-1.12,7.87-.3,2.17-1,7.34-.31,2.16-1.16,8.19-.31,2.17c.73.06,1.45.17,2.17.29a26.13,26.13,0,0,1,3.4.89l-2.5,6.72-.76,2.06a15.64,15.64,0,0,1,2,.75,16.25,16.25,0,0,1-5,31c-.56,0-1.12.08-1.69.08l-.49,0,.12,2.19.41,7.23.13,2.18.46,8.22.12,2.18.41,7.38.12,2.21c.74,0,1.46,0,2.19-.1a50.25,50.25,0,0,0,6.74-1l6.72,26.49c-1.19.28-2.39.55-3.59.76l-1,.17.41,2.15,1.4,7.26.41,2.15,1.57-.28.58-.1-.41-2.15-1.39-7.26v0c2.36-.47,4.68-1,7-1.7l2.23,7.09.66,2.08c.69-.2,1.39-.42,2.08-.64l-.65-2.09-2.23-7.07-.66-2.07c-.69.22-1.39.43-2.08.63s-1.44.39-2.15.58l-6.71-26.42-.55-2.16c-.7.19-1.42.32-2.13.47a43.84,43.84,0,0,1-6.31,1l-.41-7.38-.13-2.18-.46-8.22-.12-2.18-.41-7.2a18.42,18.42,0,0,0,5.68-35.17l2.49-6.73a25.52,25.52,0,0,1,11.35,9.35c.41.6.79,1.23,1.14,1.86a25.55,25.55,0,0,1,3.18,12.35c0,.28,0,.55,0,.82,0,.74-.08,1.47-.17,2.19a26.1,26.1,0,0,1-.95,4.52c-.22.7-.47,1.38-.74,2a25.57,25.57,0,0,1-6.49,9.36c-.54.49-1.1,1-1.67,1.4l1.42,1.65,5.39,6.21,1.43,1.65,4.85,5.6,1.44,1.66,5.17,6c-1.39,1.14-2.83,2.23-4.34,3.24-.6.41-1.21.8-1.83,1.18l1.2,1.84,4,6.17c-1.1.69-2.2,1.37-3.34,2l-1.94,1,1.06,1.89,3.72,6.62c-.71.37-1.42.74-2.14,1.08s-1.32.6-2,.88l.91,2,3.09,6.76.91,2c.67-.29,1.33-.59,2-.9l-.91-2-3.09-6.74c.79-.37,1.55-.76,2.31-1.16s1.29-.67,1.92-1,1.37-.75,2-1.15l3.77,6.42,1.11,1.88c.63-.37,1.26-.74,1.87-1.12l-1.1-1.88-3.79-6.43-1.1-1.88c-.62.39-1.25.77-1.88,1.13s-1.33.75-2,1.13l-3.7-6.58c1.18-.64,2.32-1.35,3.46-2.06.62-.39,1.23-.79,1.83-1.19,1.1-.74,2.2-1.49,3.26-2.28l4.65,5.94,1.35,1.71,4.62,5.89,1.35,1.72,1.71-1.34-1.34-1.72-4.6-5.87-1.34-1.72-4.67-6-1.35-1.72c-.56.45-1.14.9-1.73,1.34-1,.76-2,1.47-3.1,2.17l-4-6.17c1.58-1.06,3.1-2.21,4.57-3.42.56-.46,1.12-.93,1.66-1.41,1.41-1.25,2.74-2.56,4-3.93l5.58,4.86,1.66,1.43,5.67,4.93c-.56.6-1.08,1.25-1.66,1.84s-1,1-1.56,1.53l1.56,1.53,5.31,5.25,1.55,1.53c.52-.5,1-1,1.55-1.53l-1.55-1.54-5.31-5.24c.62-.62,1.16-1.31,1.75-2s1-1.08,1.45-1.64,1.09-1.16,1.59-1.77l5.9,4.55,1.73,1.34,1.34-1.72-1.72-1.33-5.91-4.56-1.72-1.34c-.45.58-.89,1.16-1.34,1.72s-1,1.12-1.51,1.69l-5.67-4.92-1.65-1.44-5.59-4.85-1.65-1.43c-.47.55-1,1.1-1.46,1.63-1.2,1.29-2.47,2.53-3.79,3.7l-5.18-6-1.45-1.66-4.82-5.57-1.43-1.64-5.39-6.23a27.91,27.91,0,0,0,7.13-10.3l35.45,12.22a65.08,65.08,0,0,1-3,7c-.33.65-.67,1.29-1,1.93l1.94,1,6.72,3.44c-.39.71-.76,1.44-1.18,2.14s-.76,1.24-1.15,1.86l1.88,1.11,6.42,3.81,1.88,1.12c.39-.62.76-1.24,1.14-1.87l-1.88-1.11-6.41-3.8c.44-.74.83-1.5,1.25-2.26s.72-1.26,1-1.91.69-1.44,1-2.16l6.79,3.14,2,.91c.31-.66.61-1.32.9-2l-2-.91-6.76-3.13-2-.91c-.29.66-.62,1.32-.93,2s-.64,1.4-1,2.08l-6.76-3.45a64,64,0,0,0,3.13-7.31c.24-.65.52-1.3.74-2l7.27,2.22,2.08.64,7.11,2.17,2.09.64c.22-.7.44-1.39.65-2.09l-2.09-.63L1119,1696l-2.09-.63-7.24-2.22c.58-1.92,1-3.88,1.44-5.88l7.47,1.3,2.15.37,7.36,1.28,2.15.37c.14-.71.26-1.43.39-2.15l-2.15-.38-7.34-1.27-2.16-.37-7.47-1.3-2.15-.37c-.12.72-.26,1.43-.39,2.14-.39,1.9-.83,3.78-1.38,5.62-.2.65-.41,1.28-.62,1.93l-35.46-12.22a28,28,0,0,0,1.06-5.12l56.85,3.08,2.18.11c0-.72.12-1.45.15-2.18l-2.18-.11Z" transform="translate(-949.64 -1578.01)"/><path class="cls-1" d="M1247.94,1699.6v-4.06c8.35-.88,8.89-1.65,8.89-11.53l-.1-42.81c-7.91,18.88-16.58,39.74-24.48,58.4h-3.63c-7.13-17.89-14.93-38.31-22.83-57.52-1.43,34.47-1.43,41.27-1.43,45.22.11,5.93,2.31,7.47,10.54,8.24v4.06h-27.22v-4.06c6.26-.55,9.11-1.76,10-8.35.44-3.29.88-9.55,3.4-45.77.33-5.27-.44-8.23-9.88-9.11v-4.06h23.71l21.19,48.41,21.29-48.41h23.17v4.06c-8.79.88-9.77,1.75-9.55,10.54l.87,41.16c.11,9.88.55,10.32,9.44,11.53v4.06Z" transform="translate(-949.64 -1578.01)"/><path class="cls-1" d="M1317.22,1699.6v-3.34c5.68-.81,5.68-1.8,4.42-5.68-.9-2.7-2.35-6.75-3.7-10.36h-17.57c-1,2.79-2.26,6.22-3.16,9-1.89,5.68.27,6.4,7.39,7v3.34h-22.26v-3.34c5.68-.72,7.12-1.53,10.18-9.1l18.75-46.6,4.33-.81c5.77,15.68,11.9,31.73,17.76,46.78,3.33,8.38,4.14,9,10,9.73v3.34Zm-7.93-43.09c-2.61,6.49-5.14,12.53-7.39,19.11h14.33Z" transform="translate(-949.64 -1578.01)"/><path class="cls-1" d="M1403.3,1700.14c-.54,0-1.63,0-2.71-.09-11.44-.54-14.78-3-17.48-6.76-3.61-5-6.22-10.46-9.29-15.86-1.35-2.44-2.61-3-5.5-3l-1.8-.09v13.16c0,7.3.9,7.93,7.66,8.74v3.34H1346.6v-3.34c6.85-.72,7.66-1.44,7.66-8.74V1653c0-7.12-.9-8.11-7.66-8.65V1641h26.14c8,0,12.62.9,16.31,3.43s6,6.4,6,12c0,8-5.31,12.26-11.26,14.61,1.35,2.7,4.86,8.56,7.57,12.71a72.84,72.84,0,0,0,6.85,9.37c2.07,2.34,3.06,3.06,5.68,4ZM1369,1670.67c3.87,0,6.85-.63,8.83-2.35,3-2.52,4.23-6,4.23-10.54,0-9.56-5.49-13-10.54-13-2.43,0-3.61.36-4.15.9s-.81,1.62-.81,3.42v21.55Z" transform="translate(-949.64 -1578.01)"/><path class="cls-1" d="M1407.08,1699.6v-3.34c6.85-.63,7.66-1.17,7.66-8.74v-34.34c0-7.57-.9-8.29-7.66-8.83V1641h27.85v3.34c-6.76.63-7.66,1.26-7.66,8.83v34.34c0,7.48.81,8,7.66,8.74v3.34Z" transform="translate(-949.64 -1578.01)"/><path class="cls-1" d="M1505.41,1644.35c-5.5.72-7.21,1.89-7.48,6-.27,3.51-.54,6.58-.54,14.42v35.87h-5.05l-37.58-45.07v20.37a136.9,136.9,0,0,0,.45,14c.36,4,2.25,6,8.92,6.4v3.34h-22.35v-3.34c5.13-.45,7.39-1.8,7.93-6a121.22,121.22,0,0,0,.54-14.33v-21.36c0-3-.18-5-1.89-7.3s-3.79-2.52-7.57-2.88V1641h17.57l34.34,39.93v-16.22c0-7.84-.09-10.82-.36-14.15-.27-3.88-1.71-5.77-9.19-6.22V1641h22.26Z" transform="translate(-949.64 -1578.01)"/><path class="cls-1" d="M1560.48,1684.28c-.45,2.43-3,12.8-3.79,15.32h-46.78v-3.25c8.21-.81,8.75-1.26,8.75-8.83v-34.43c0-7.66-1.08-8.2-7.21-8.74V1641h29.29c9.46,0,12.62-.09,13.88-.18.09,1.62.54,9,.9,14.6l-3.51.45c-.81-3.06-2.35-6.76-3.88-8.38-1.62-1.8-2.79-2.34-7.39-2.34h-5.86c-3.42,0-3.78.18-3.78,3.24v18.84h8.83c5,0,6-1.35,7.3-7.75h3.51v20.1h-3.51c-1.44-6.67-2.16-7.75-7.39-7.75h-8.74v15.5c0,6.22.18,8.11,5.76,8.2h6.4c5,0,6.4-.63,8.39-3.06a40.32,40.32,0,0,0,5.49-9Z" transform="translate(-949.64 -1578.01)"/><path class="cls-1" d="M1629,1628.25c8.67,0,15.26,1.53,19.76,4.5,5.49,3.62,8.56,8.89,8.56,16.46,0,15.92-13.5,22.62-25.25,22.73a27.53,27.53,0,0,1-3.29-.22l-6.37-1.65V1685c0,9.22.77,9.66,10.32,10.54v4.06h-34.91v-4.06c8.24-1,9.34-1.32,9.34-10.54v-41.93c0-9.22-1.1-10.21-9.34-10.76v-4.06Zm-6.59,37.21a14.08,14.08,0,0,0,5.82,1.1c5,0,13.28-3,13.28-17.46,0-12.29-6.69-16.35-13.83-16.35a6.7,6.7,0,0,0-4.28,1.1c-.77.65-1,1.75-1,3.4Z" transform="translate(-949.64 -1578.01)"/><path class="cls-1" d="M1729.08,1644.35c-7,.72-7.66,1.26-7.66,8.74v34.52c0,7.48.72,8,7.66,8.65v3.34h-27.85v-3.34c7.12-.9,7.66-1.17,7.66-8.65v-16.94h-24.33v16.94c0,7.48.81,7.93,7.57,8.65v3.34h-27.76v-3.34c6.67-.72,7.66-1.17,7.66-8.65v-34.52c0-7.48-.81-8.2-7.66-8.74V1641h27.76v3.34c-6.85.63-7.57,1.26-7.57,8.74V1666h24.33v-12.89c0-7.48-.9-8-7.66-8.74V1641h27.85Z" transform="translate(-949.64 -1578.01)"/><path class="cls-1" d="M1789.92,1644.35c-5.77.63-7.84,1.89-11.09,7.39s-6,10.54-10.45,19.56a9.17,9.17,0,0,0-1,4.77v11.18c0,7.84.72,8.11,8.11,9v3.34H1747v-3.34c7.12-.9,7.75-1.17,7.75-9v-10.37a7.72,7.72,0,0,0-1-4.14c-2.61-5.32-5.94-11.36-11.35-20.82-3.34-5.86-4.69-7-9.92-7.57V1641h26.41v3.34c-6,.81-5.86,2-4.32,5.13,3,5.86,6.85,13.07,10.27,19.65,2.71-5,7-13.7,9.56-19.2,1.71-3.6,1-4.77-5.5-5.58V1641h21Z" transform="translate(-949.64 -1578.01)"/><path class="cls-1" d="M1846.34,1684.1a128.56,128.56,0,0,1-5,14.51c-2.34.54-9.73,2.34-16.58,2.34-24.25,0-34.25-15.59-34.25-29.92,0-18.66,14.24-31.28,35.87-31.28,7.84,0,14.78,1.89,17,2.16.46,4.24,1.09,10.91,1.72,14.88l-3.61.63c-1.89-7-4.59-10.37-9.37-12.26a22.74,22.74,0,0,0-7.84-1.26c-13.07,0-19.65,10.9-19.65,25,0,16.5,8.47,27.67,20.82,27.67,7.57,0,12.62-4,17.48-13.88Z" transform="translate(-949.64 -1578.01)"/><path class="cls-1" d="M1885.54,1639.75c16.68,0,30.29,12.17,30.29,29.92,0,19.2-13.7,31.28-30.74,31.28-18,0-31.09-13.16-31.09-30.55C1854,1655,1865,1639.75,1885.54,1639.75Zm-1.35,4c-9.19,0-16,9-16,25,0,15.24,6,28.3,18.21,28.3,8.56,0,15.23-8.29,15.23-24.78C1901.68,1654.35,1894.65,1643.72,1884.19,1643.72Z" transform="translate(-949.64 -1578.01)"/><path class="cls-1" d="M1971.44,1683.74c-.72,3.87-3.25,13.43-4.06,15.86h-44.71v-3.34c7.94-.54,8.66-1.17,8.66-8.74v-34.34c0-7.57-.9-8.29-7.66-8.83V1641h28.12v3.34c-7,.63-7.93,1.26-7.93,8.83v35c0,5,.18,7.21,5.13,7.3.18.09,4.33.09,4.69.09,5.14,0,6.49-1.08,8.65-3.51a37.43,37.43,0,0,0,5.68-9.38Z" transform="translate(-949.64 -1578.01)"/><path class="cls-1" d="M2008.3,1639.75c16.67,0,30.28,12.17,30.28,29.92,0,19.2-13.7,31.28-30.73,31.28-18,0-31.1-13.16-31.1-30.55C1976.75,1655,1987.75,1639.75,2008.3,1639.75Zm-1.35,4c-9.2,0-16,9-16,25,0,15.24,6,28.3,18.21,28.3,8.56,0,15.23-8.29,15.23-24.78C2024.43,1654.35,2017.4,1643.72,2007,1643.72Z" transform="translate(-949.64 -1578.01)"/><path class="cls-1" d="M2108.34,1674.9c-5.14.9-5.77,1.26-5.77,7.39v6.94a51.2,51.2,0,0,0,.54,8.75c-4.59.81-14.51,3-21.81,3-21.18,0-33.35-12.89-33.35-30.74,0-20.28,16.5-30.46,35.69-30.46,7.31,0,15.24,1.8,18.21,2.07.18,4,.9,10.82,1.53,15.78l-3.51.63c-2.16-7.66-5.5-11.54-11.09-13.43a27.16,27.16,0,0,0-7.66-1.08c-10.91,0-19.11,9.46-19.11,25,0,15.87,5.59,28.4,20.37,28.4a11.74,11.74,0,0,0,5.77-1.27c1.35-.81,2.07-2.34,2.07-5.13v-7.94c0-6.31-1.26-6.94-8.83-7.84v-3.33h27Z" transform="translate(-949.64 -1578.01)"/><path class="cls-1" d="M2167.1,1644.35c-5.77.63-7.84,1.89-11.08,7.39s-6,10.54-10.46,19.56a9.17,9.17,0,0,0-1,4.77v11.18c0,7.84.72,8.11,8.11,9v3.34H2124.2v-3.34c7.12-.9,7.75-1.17,7.75-9v-10.37a7.82,7.82,0,0,0-1-4.14c-2.61-5.32-5.95-11.36-11.36-20.82-3.33-5.86-4.68-7-9.91-7.57V1641h26.41v3.34c-6,.81-5.86,2-4.33,5.13,3,5.86,6.85,13.07,10.28,19.65,2.7-5,7-13.7,9.55-19.2,1.71-3.6,1-4.77-5.5-5.58V1641h21Z" transform="translate(-949.64 -1578.01)"/><path class="cls-1" d="M2262.85,1680.28c-.88,4.72-4,16.35-4.94,19.32h-54.45v-4.06c9.66-.66,10.54-1.43,10.54-10.65v-41.82c0-9.22-1.1-10.1-9.33-10.76v-4.06h34.25v4.06c-8.57.77-9.66,1.54-9.66,10.76v42.59c0,6,.22,8.78,6.25,8.89.22.11,5.27.11,5.71.11,6.26,0,7.91-1.32,10.54-4.28,2.08-2.2,4.94-6.92,6.91-11.42Z" transform="translate(-949.64 -1578.01)"/><path class="cls-1" d="M2297.67,1699.6v-3.42c5.81-.83,5.81-1.84,4.52-5.81-.92-2.77-2.4-6.93-3.78-10.62h-18c-1,2.86-2.31,6.37-3.24,9.23-1.93,5.82.28,6.56,7.57,7.2v3.42h-22.8v-3.42c5.82-.74,7.3-1.57,10.43-9.32l19.21-47.73,4.43-.83c5.91,16.06,12.18,32.5,18.18,47.91,3.42,8.59,4.25,9.23,10.25,10v3.42Zm-8.13-44.13c-2.67,6.65-5.26,12.83-7.57,19.57h14.68Z" transform="translate(-949.64 -1578.01)"/><path class="cls-1" d="M2360.25,1667.33c9.47,1.71,16.14,6.22,16.14,14.78,0,5.59-3.52,10.82-8.66,13.7-4.59,2.53-10.45,3.79-17.12,3.79h-25.24v-3.34c6.94-.72,7.66-1.17,7.66-8.74v-34.34c0-7.57-1.17-8.38-7.57-8.83V1641h27.4c6.85,0,11.18.9,14.78,3.16a11.56,11.56,0,0,1,5.5,10C2373.14,1661.65,2366.11,1666.16,2360.25,1667.33Zm-11.44-1.17c8.56,0,11.71-3.7,11.71-10.37,0-7.84-5.13-10.81-10.09-10.81a8.65,8.65,0,0,0-4.24.72c-1,.63-.9,1.44-.9,3.33v17.13Zm-3.52,21.18c0,6.49,3,8.47,7.84,8.38s9.83-4.41,9.83-12.8c0-8.74-4.42-12.88-14.51-12.88h-3.16Z" transform="translate(-949.64 -1578.01)"/><path class="cls-1" d="M2416.31,1639.75c16.68,0,30.29,12.17,30.29,29.92,0,19.2-13.7,31.28-30.74,31.28-18,0-31.09-13.16-31.09-30.55C2384.77,1655,2395.76,1639.75,2416.31,1639.75Zm-1.35,4c-9.19,0-15.95,9-15.95,25,0,15.24,6,28.3,18.2,28.3,8.57,0,15.24-8.29,15.24-24.78C2432.45,1654.35,2425.42,1643.72,2415,1643.72Z" transform="translate(-949.64 -1578.01)"/><path class="cls-1" d="M2511.13,1700.14c-.54,0-1.63,0-2.71-.09-11.44-.54-14.78-3-17.48-6.76-3.61-5-6.22-10.46-9.29-15.86-1.35-2.44-2.61-3-5.49-3l-1.81-.09v13.16c0,7.3.9,7.93,7.66,8.74v3.34h-27.58v-3.34c6.85-.72,7.66-1.44,7.66-8.74V1653c0-7.12-.9-8.11-7.66-8.65V1641h26.14c8,0,12.62.9,16.32,3.43s6,6.4,6,12c0,8-5.32,12.26-11.27,14.61,1.35,2.7,4.87,8.56,7.57,12.71a72.84,72.84,0,0,0,6.85,9.37c2.07,2.34,3.06,3.06,5.68,4Zm-34.34-29.47c3.87,0,6.85-.63,8.83-2.35,3-2.52,4.24-6,4.24-10.54,0-9.56-5.5-13-10.55-13-2.43,0-3.6.36-4.15.9s-.81,1.62-.81,3.42v21.55Z" transform="translate(-949.64 -1578.01)"/><path class="cls-1" d="M2548.62,1699.6v-3.34c5.68-.81,5.68-1.8,4.41-5.68-.9-2.7-2.34-6.75-3.69-10.36h-17.58c-1,2.79-2.25,6.22-3.15,9-1.9,5.68.27,6.4,7.39,7v3.34h-22.26v-3.34c5.67-.72,7.12-1.53,10.18-9.1l18.75-46.6,4.33-.81c5.76,15.68,11.89,31.73,17.75,46.78,3.34,8.38,4.15,9,10,9.73v3.34Zm-7.93-43.09c-2.62,6.49-5.14,12.53-7.4,19.11h14.34Z" transform="translate(-949.64 -1578.01)"/><path class="cls-1" d="M2620.63,1656.6a27.83,27.83,0,0,0-3.87-8.83c-1.63-1.89-2.35-2.61-7.66-2.61h-5.77v42.36c0,7.57.9,8.11,8.92,8.74v3.34h-29.92v-3.34c7.66-.63,8.47-1.17,8.47-8.74v-42.36h-5.5c-5.05,0-6.49.81-8.2,3-1.26,1.71-2.53,5-3.7,8.57H2570c.63-6.58,1.26-13.62,1.44-17.94h2.7c1.36,2.07,2.44,2.25,5.14,2.25h36a6,6,0,0,0,5.23-2.25h2.62c.09,3.78.45,11.72.9,17.57Z" transform="translate(-949.64 -1578.01)"/><path class="cls-1" d="M2662.09,1639.75c16.67,0,30.28,12.17,30.28,29.92,0,19.2-13.7,31.28-30.73,31.28-18,0-31.1-13.16-31.1-30.55C2630.54,1655,2641.54,1639.75,2662.09,1639.75Zm-1.35,4c-9.2,0-16,9-16,25,0,15.24,6,28.3,18.21,28.3,8.56,0,15.23-8.29,15.23-24.78C2678.22,1654.35,2671.19,1643.72,2660.74,1643.72Z" transform="translate(-949.64 -1578.01)"/><path class="cls-1" d="M2756.9,1700.14c-.54,0-1.62,0-2.7-.09-11.45-.54-14.78-3-17.49-6.76-3.6-5-6.22-10.46-9.28-15.86-1.35-2.44-2.61-3-5.5-3l-1.8-.09v13.16c0,7.3.9,7.93,7.66,8.74v3.34h-27.58v-3.34c6.85-.72,7.66-1.44,7.66-8.74V1653c0-7.12-.9-8.11-7.66-8.65V1641h26.14c8,0,12.62.9,16.31,3.43s6,6.4,6,12c0,8-5.32,12.26-11.27,14.61,1.36,2.7,4.87,8.56,7.57,12.71a72.64,72.64,0,0,0,6.86,9.37c2.07,2.34,3.06,3.06,5.67,4Zm-34.34-29.47c3.88,0,6.85-.63,8.84-2.35,3-2.52,4.23-6,4.23-10.54,0-9.56-5.5-13-10.54-13-2.44,0-3.61.36-4.15.9s-.81,1.62-.81,3.42v21.55Z" transform="translate(-949.64 -1578.01)"/><path class="cls-1" d="M2811.79,1644.35c-5.77.63-7.84,1.89-11.09,7.39s-6,10.54-10.45,19.56a9.17,9.17,0,0,0-1,4.77v11.18c0,7.84.72,8.11,8.11,9v3.34h-28.48v-3.34c7.12-.9,7.75-1.17,7.75-9v-10.37a7.82,7.82,0,0,0-1-4.14c-2.62-5.32-6-11.36-11.36-20.82-3.34-5.86-4.69-7-9.92-7.57V1641h26.41v3.34c-6,.81-5.86,2-4.32,5.13,3,5.86,6.85,13.07,10.27,19.65,2.71-5,7-13.7,9.56-19.2,1.71-3.6,1-4.77-5.5-5.58V1641h21Z" transform="translate(-949.64 -1578.01)"/></g></svg>