<?xml version="1.0" encoding="utf-8"?>
<!-- Generator: Adobe Illustrator 24.0.2, SVG Export Plug-In . SVG Version: 6.00 Build 0)  -->
<svg version="1.1" xmlns="http://www.w3.org/2000/svg" xmlns:xlink="http://www.w3.org/1999/xlink" x="0px" y="0px"
	 viewBox="0 0 4000 2000" style="enable-background:new 0 0 4000 2000;" xml:space="preserve">
<style type="text/css">
	.st0{fill:#0756A5;}
	.st1{fill:#FFFFFF;}
	.st2{fill:#FEE000;}
</style>
<g id="Layer_1">
</g>
<g id="Layer_2">
	<g>
		<g id="Ellipse_1_2_">
			<g>
				<circle class="st0" cx="534.41" cy="889.48" r="426.18"/>
			</g>
		</g>
		<path class="st1" d="M475.53,1156.5c1.85,10.69,7.62,12.77,11.21,16.76c3.6,4.02-2.17,12.02-5.67,13.77
			c-3.5,1.75-7.62-9.56-13.26-22.01s-15.33-24.18-26.83-30.14c-11.54-5.96-35.59-45.47-39.41-53.09
			c-3.79-7.62,5.54-20.26,16.56-22.95s7.81,6.25,33.96,12.54c28.52,6.87,27.39-6.55,51.66-13.16c27.32-7.42,15.85-11.86,23.95-17.11
			c50.62-37.04,12.02-21.39,29.95-34.06c17.89-12.64,14.07-12.7,18.21-25.83c4.6-14.58,6.51-7.29,22.3-38.57
			c16.24-32.21-2.53-6.16-0.39-38.28c2.14-32.12-5.77-24.47-5.77-24.47c-3.21,3.14-10.89,6.77-15.01,3.08
			c-7.19-6.45-18.12,11.38-26.12,7.52c-11.51-5.57-27.32,37.92-40.12,35.1c-5.09-1.13-5.83,5.25-7.62,10.89
			c-1.81,5.77-6.38,12.96-13.58,18.51s-9.27,0.42-14.2,4.93c-4.93,4.54-6.16,3.92-9.46,8.23c-3.31,4.31-1.65,9.46-9.04,7.81
			c-7.42-1.65-6.38,1.23-10.27,5.96c-3.92,4.73-8.94,7.91-8.94,7.91c-11.41-1.85-7.88,28.39-9.88,39.96
			c-2.01,11.57-19.74,15.75-19.74,15.75s-1.23,2.17-3.4-6.81c-2.17-8.94,9.27-8.78,15.59-26.38c6.32-17.6-17.27-42.91-39.05-22.36
			c-21.75,20.51-4.47,39.05,3.24,43.36c7.71,4.31,8.91,14.91,8.91,14.91c-7.1,6.06-1.13,16.37-9.04,13.58
			c-12.28-4.31-21.71-45.18-20.77-54.84c0.94-9.66-0.1-42.91-1.94-50.4c-1.85-7.52-4.31-14.71-4.12-21.91s16.56-13.39,23.24-14.81
			c6.68-1.43,13.9,13.9,20.58,14.2c6.68,0.29,5.87-7.29,10.27-2.37s9.04,2.37,22.43,3.6c13.38,1.23,12.25-2.37,20.16-10.08
			s19.64-8.23,19.64-8.23c10.34-4.63,11.89-25.93,18.83-17.14c6.94,8.78,12.02-6.48,17.27-18.38c5.25-11.89,33.02-16.5,32.57-35.2
			c-0.45-18.67,6.81-17.76,4.93-29.62c-1.85-11.89,0-8.17,4.8-15.59s-1.39-7.71-1.85-15.59c-0.45-7.88,7.71-11.57,7.26-19.28
			c-0.45-7.71,3.69-7.55,0.94-12.8c-2.75-5.25-0.94-12.64-0.94-12.64c0.94-6.94,6.16-12.19,1.39-12.96
			c-4.76-0.78-4.47-7.1-2.92-18.21c1.56-11.12-12.96,0-23.92,2.17c-10.95,2.17-18.21,9.72-19.51,18.67
			c-1.3,8.94-9.04,10.66-9.04,10.66c-11.89,3.89-8.82,6.94-17.63,14.91c-8.13,7.36-6.58,1.85-10.7,10.89
			c-4.12,9.04-4.12,10.08-15.62,18.31c-11.54,8.23-10.7,14.2-13.38,18.93c-2.69,4.73-8.65,2.88-15.62,19.54
			c-7,16.66-12.96,13.58-22.23,16.27c-9.27,2.69-1.04,11.31-10.27,39.93c-9.24,28.62-30.14,24.08-30.14,24.08
			c-1.85-3.6,1.59-13.13,1.59-13.13s2.04-0.55,9.27-4.93c7.19-4.41,11.86-20.03,12.51-25.44c1.23-10.27-5.96-23.24-16.27-24.7
			c-9.82-1.36-21.39,4.02-26.22,16.46c-4.6,11.83,5.06,31.6,6.81,34.16s1.13,1.43,0.62,7.71c-0.52,6.29-5.44,7.52-5.44,7.52
			c-6.16-2.69-7.52-12.77-10.7-23.04c-3.18-10.27-2.37-22.75,1.43-29.1c3.79-6.38,3.5-12.87,9.17-18.64
			c5.67-5.77,16.04-23.37,17.27-27.68c1.23-4.31,12.12-23.98,12.12-23.98c3.31-7.78,12.35-15.98,16.89-29.72
			c4.54-13.74,6.03-6.61,9.4-12.35c3.14-5.28,13.55-13.61,15.23-10.82c2.04,3.37,1.65,1,6.68-1.78s17.53-0.39,17.53-0.39
			c10.08,2.79,16.66,2.72,20.39,0.71c3.69-2.01,9.01-4.99,21.49-7c6.03-0.97,6.03-5.12,9.17-5.54c4.47-0.65,5.96-1.13,9.04-6.9
			c1.56-2.92,5.54-0.81,8.94-6.06c3.4-5.25,5.25-18.25,20.51-23.5s14.03-9.4,16.2-14.36c2.17-4.93,3.4-0.78,4.31-11.28
			c0.91-10.5,6.94-11.63,14.13-20.06c11.18-13.13-0.88-7.1,0-15.59c0.06-12.51-6.94-6.58-6.94-6.58
			c-11.31,6.38-11.54-1.04-15.75-4.02s-13.06,6.06-21.1,14.1s-19.12,1.43-27.68,14.71c-8.52,13.26-16.98,16.37-27.97,19.74
			c-11.02,3.4-15.52,6.16-15.01,18.93c0.52,12.77-4.31,19.96-10.89,26.45c-6.58,6.48-19.12,10.5-19.25,7.52
			c-0.1-2.98,0.42-0.94,11.31-7.62s9.11-19.02,9.11-19.02c-0.81-7.52-1.69-12.19-8.94-15.59c-9.53-4.47-19.12,3.08-24.96,15.39
			c-5.48,11.57,1.13,23.66,1.75,25.12c0.62,1.43,2.46,7.1,2.46,7.1c-1.04,3.08-9.56,8.75-9.56,8.75c0.32-3.31,0.52-5.06-3.18-18.41
			c-3.69-13.38,2.27-26.96,8.75-35.49c6.48-8.52,14.39-13.48,18.41-17.18c4.02-3.69,3.08-1.04,11.41-13.38
			c8.33-12.35,17.08-13.38,27.48-15.85c10.4-2.46,13.16-3.92,19.35-6.16c6.16-2.27,18.21-1.85,27.26-11.41
			c9.04-9.56,16.14-11.83,28.1-17.6c11.93-5.77,15.1-9.95,15.1-9.95c7.71-10.4,4.41-13.06,7.78-18.6c6.38-11.73,1.33-8.56-4.6-8.43
			c-5.93,0.13-6.61,3.21-13.13,4.12c-6.51,0.94-3.89,2.92-16.85,2.56c-12.96-0.36-12.48,1.81-17.89,6.22
			c-5.41,4.41-5.74,6-18.34,10.21s-12.74,9.59-12.74,9.59c-0.97,3.24-1.75,4.47-5.28,9.11c-1.1,1.43-2.59,2.07-3.53,3.08
			c-2.11,2.24-3.6,4.21-6.87,6.09c-4.86,2.82-9.33,10.37-9.01,5.06c0.1-1.81,0.78-5.09,2.14-8.43c2.37-5.8,6.19-12.32,7.97-15.56
			c2.79-5.12,6-7.55,10.76-12.02c4.76-4.47,11.08-4.93,16.27-7.68c5.19-2.72,6.45-7.39,9.53-12.9c3.08-5.51,1.23-4.05-2.56-4.41
			s-3.24,1.23-5.74,1.17c-2.53-0.06-3.14,0.03-4.44,0.81c-1.33,0.78-2.63,1.23-2.63,1.23c-6.42,1-9.07,8.33-12.28,11.6
			c-3.18,3.31-7.19,3.69-5.15,1.75c2.04-1.94,4.54-8.88,9.98-14.2c5.15-5.02,13.09-7.81,23.66-13.77
			c10.66-6.03,14-10.79,15.85-15.95c1.85-5.15-3.69-1.1-7.91,0c-4.21,1.1-9.56,1.04-9.56,1.04c-17.18-0.32-25.7,12.19-28.84,16.2
			c-8.33-0.32-15.14,13.9-18.38,24.7c-3.24,10.79,1.56,18.38-3.69,23.63c-5.25,5.25-2.3,6.03-5.41,11.73
			c-3.08,5.7-2.46,12.51-3.57,18.83c-1.1,6.32-6.94,7.71-4.8,3.57c2.17-4.18,2.46-12.51-3.57-17.44c-6.03-4.93-6.94,3.08-14.65,9.56
			c-7.71,6.48-5.25,20.39-6.03,25.77c-0.78,5.38-4.63,3.76-4.63,3.76c-3.5-4.21-0.94-11.93-0.19-16.89
			c0.71-4.93,4.02-11.63,6.9-15.52s6.29-7.71,7.1-12.02c0.81-4.31,0-6.16,2.37-10.27c2.37-4.12,7.71-6.68,12.25-13.16
			c4.54-6.48-0.81-11.12,8.04-18.64c8.85-7.52,10.47-12.09,14.81-16.04c5.93-5.38,6.13-7.03,4.12-7.91
			c-1.72-0.75,2.79-4.02,0.42-5.35c-2.37-1.33-9.88,4.63-17.79,5.15c-7.91,0.52-7.65,6.87-15.95,5.87
			c-8.62-1.04-14.26,7.19-16.14,6.81c-0.65-0.13-3.14-4.63-6.38,2.69c-1.81,4.15-2.37,5.67-4.73,6.81
			c-2.37,1.13-5.54,1.75-6.38,7.62s-0.81,6.29-6.29,8.85c-5.44,2.56-8.65,9.46-6.68,18.02c1.94,8.52,0.81,8.65-1.33,19.25
			c-2.14,10.6,2.27,16.76,5.44,17.27c3.18,0.52,2.56,2.04,2.56,2.04c-2.37,7.29,1.04,9.27,3.69,13.16
			c2.69,3.92,4.21,13.9,1.23,22.33c-2.98,8.43-2.98,10.4-3.6,15.43c-0.62,5.06-3.89,10.95-3.89,10.95
			c-1.98,5.32-1.56,9.72-1.69,19.19c-0.36,13.81,4.21,8.82,1.52,17.31c-2.69,8.49-5.02,14.36-7.1,20
			c-2.07,5.64-2.79,9.33-6.32,14.13c-3.57,4.8-7.32,11.73-9.79,19.12c-2.46,7.42-10.18,14.65-15.59,28.55
			c-5.41,13.9-15.59,21.29-18.51,24.53c-2.92,3.24-6.13,11.76-6.13,11.76c-0.19,2.69-2.56,6.16-4.31,6.48s-5.44-3.4-4.54-6.38
			c0.91-2.98,0.62-5.87,0.62-5.87s0.1-6.45,5.35-13.06c0.19-0.1,6-0.32,10.08-2.27c4.6-2.2,7.58-6.22,9.04-8.23
			c7.23-9.76,5.06-27.48-2.04-31.15c-4.15-4.02-6.29-3.53-11.02-3.63c-4.73-0.1-8.78-1.94-18.41,6.61c-10.76,9.56,0,31.6,0,31.6
			c0.71,14.81-4.12,13.38-4.12,13.38c-1.62-4.18-7.94-2.92-11.12-16.27c-3.18-13.35,1.94-23.37,4.41-28.46
			c1.88-3.89,14.55-12.61,15.75-18.21c1.56-7.1-6.42-2.98-6.25-6.71c0.13-2.75,2.75-6.55,2.75-6.55
			c9.66-11.54,9.72-35.94,9.72-35.94c10.95-9.56,7.26-15.69,7.26-15.69c4.31-5.06,3.31-7.19,3.6-9.56c0.32-2.37,3.79-4.41,5.35-7.91
			c1.56-3.5,13.38-13.06,16.98-17.27s4.31-6.58,4.83-11.54c0.52-4.93-1-9.82,2.69-16.04c4.12-6.97-2.4-10.05-7.19-13.68
			c-1.98-1.49-1.3-4.28-0.55-7.42c0.55-2.3,1.3-7.26,3.79-10.11c5.61-6.48,0.78-6.94,4.18-11.47s4.73-9.46,4.73-9.46
			c13.9-20.87,4.93-16.98,0.71-15.07c-4.21,1.91-5.67,2.92-9.46,0.78c-3.79-2.14-6.32,0.97-6.32,0.97
			c-6.35,1.3-5.77,6.35-13.13,6.35c-7.42,0-14.65,9.56-20.84,15.26c-6.16,5.7-8.65,5.41-10.5,8.94c-1.85,3.57-2.79,4.02-2.79,4.02
			c-9.27,7.26-6.35,11.47-9.3,12.8c-3.31,1.49-3.31-5.77-9.17-0.42c-5.54,5.12-4.54,10.5-10.79,13.48
			c-5.93,2.82-13.45,13.03-17.08,28.1c-2.69,11.12-11.25,13.9-12.54,11.41c-2.3-4.44-8.78,1.49-9.04,9.27
			c-0.13,4.15-1.75,6.29-7.62,12.25c-5.87,5.96-4.54,10.27-4.54,10.27c-10.27,0.81-3.08,12.64-3.08,12.64
			c0,5.06-0.71,5.77,1.23,7.81c1.94,2.04,5.41,17.08,2.37,24.89c-2.79,7.23-1.23,5.25-0.81,14.52c0.42,9.27-3.31,12.77,0.42,17.5
			c3.69,4.73,9.88,25.31,18.12,27.48c8.23,2.17,7.52,4.21,7.52,4.21c2.04,1.26-2.01,9.43,0.94,12.35c5.38,5.35,16.46,4.76,22.52,3.6
			c5.35-1.04,6.25-1.39,14.1,0.81c3.82,1.07,6.35,4.31,6.68,6.81c1.85,13.48,5.15,9.46,7.42,15.43c3.57,9.4,4.93,11.12,9.46,16.04
			c4.54,4.93,14.26,30.01,14.26,30.01c2.3,6.87,7.71,13.29,7.55,25.02c-0.16,11.73,0.62,13.51,3.08,19.54
			c2.46,6.03,1.69,11.28,2.46,18.51c0.78,7.26-1.2,12.45,0.52,18.93c1.69,6.48,0.19,21.13,0.19,21.13s-4.96-1.81-7.03-5.09
			c-2.04-3.31-5.51-2.17,0.45-12.45s-2.56-20.06-2.56-20.06s2.98-9.37,1.33-19.25c-1.65-9.88-8.43-18.21-23.04-18.21
			c-15.62,0-19.54,8.43-20.68,22.75c-1.13,14.32,8.62,18.83,8.62,18.83c12.28,7,22.65,3.92,22.65,3.92s1.33,0,3.08,4.21
			c1.75,4.21-1.13,3.4-3.5,8.94s-10.7,3.5-26.12-3.79s-11.73-45.37-11.73-45.37c1.78-11.86,1.94-19.25-1.85-23.76
			s-10.44-20.13-10.73-25.38c-0.32-5.25-4.02-4.12-12.96-9.46c-8.94-5.35-10.6-14.29-14.71-15.52c-4.12-1.23-8.33-4.31-8.04-8.52
			c0.32-4.21,0.19-5.67-1.65-9.37s-1.85-11.31-1.85-11.31c-1.43-5.38-8.91-4.67-10.08-10.6c-2.95-15.17-5.67-9.88-6.06-26.02
			c-0.42-16.14-8.88-11.02-7.62-18.51c2.27-13.22-11.67-5.57-15.46-0.36c-4.76,6.58-1.78,11.54-3.53,11.73
			c-4.6,0-9.01-9.4-10.4,1.43c-0.65,4.96,2.92,9.11-0.78,13.03c-2.04,2.17-7.23,4.47-6.29,10.27c0.91,5.48-1,7.07-2.88,14.1
			c-1.56,5.77,7.32,22.88,2.59,26.15c-4.73,3.31-2.59,6.25-1.78,12.41c0.81,6.16,0.94,20.48,0.94,20.48c-5.06,5.15-7.1,9.79-4.31,21
			c2.79,11.21,1.13,9.88-0.62,21.71c-1.75,11.83,5.15,6.06,6.9,22.1c1.75,16.04,2.04,5.87,6.48,18.73
			c4.41,12.87,31.47,32.51,31.47,32.51c-1.13,14.71,6.64,10.18,6.64,10.18c16.24,13.48,35.13,9.82,37.95,11.12
			c6.38,2.37,2.04,8.07,6.06,11.63c2.72,2.43,10.79-3.92,20.77-1.33c10.92,2.82,17.66-8.52,17.66-8.52
			c5.09-6.25,19.67-13.9,28.39-6.55c10.5,8.82,11.89,8.88,11.89,8.88c2.3,4.8,5.41,11.51,7.49,12.64c2.07,1.17,1.69,0.84,3.79,5.41
			c2.07,4.54,0.45,8.88,2.66,11.18c2.2,2.3,2.27,8.01,6.38,14.39c2.98,4.6,17.27,17.86,19.45,19.25c2.17,1.39,1.56,1.07,5.8,7.88
			c4.25,6.81,12.8,12.51,13.64,17.89c0.84,5.41,11.63,17.83,12.64,19.06c1,1.23,0.68,2.79,1.69,4.41c1,1.62,1.69,1.49,7.94,5.54
			c6.61,4.28,4.6,13.97,2.4,15.49c-2.66,1.39-10.34,0.62-14.36-3.82c-2.33-2.59-0.68-8.94-0.58-9.72
			c0.19-1.56,0.26-25.47-24.05-29.4c-6.09-0.97-29.07-1.13-25.83,23.76c2.72,21,32.73,23.85,38.34,21.97
			c5.38-1.33,6.81,2.82,5.8,4.08c-1.62,2.04-3.57,1.69-12.41,2.79c-8.85,1.1-11.73-2.24-14.65-3.31c-2.92-1.07-6.16-0.06-7.78-1.23
			s2.4-0.62,3.08-2.01c0.68-1.39,0.94-2.24-6.09-1.62c-7.03,0.62-9.17-6.16-14.52-11.02c-5.32-4.86-4.25-8.49-4.7-17.21
			c-0.45-8.72-3.01-8.04-7.88-10.4c-4.86-2.4-5.93-4.8-5.93-4.8c0.58-9.46-4.02-10.5-5.74-11.57c-1.75-1.07-5.32-1.1-5.32-1.1
			c-1.59-2.2-3.24-2.59-5.83-2.43c-2.59,0.13-2.53-0.97-2.53-0.97c0-7.71-2.5-11.34-4.28-12.96c-1.78-1.59-5.06-4.41-5.06-4.41
			c-2.43-6.03-9.56-9.17-9.56-9.17c-0.84-12.77-10.79-18.41-13.77-18.76c-2.98-0.36-4.86-3.99-12.45-5.22
			c-2.11-0.36-10.95,1.46-13.97,0.06c-3.01-1.39-3.24,0.71-4.38,1.56c-1.13,0.84-7.55,0.23-9.66,0.19s-6.77-4.63-9.46-7
			c-2.66-2.37-5.35,1.17-5.35,1.17s-14.62-16.76-15.95-17.66c-1.36-0.88-3.11,1.81-3.11,1.81c-4.31-0.78-1.94,0.55-6,1.46
			c-4.05,0.91-4.89-0.62-5.19-1.72c-0.29-1.1-1.52-1.62-2.33-2.53s-1-2.37-1-2.37c-0.84-1.07-2.24,1.36-2.24,1.36
			c-5.61,0.94-3.89,5.54-3.21,8.13c0.65,2.59,5.51,8.17,6,14.1c0.52,5.93,3.11,10.08,5.8,14.75c2.72,4.7,1.75,7.39,1.43,10.5
			s13.16,16.11,15.36,18.8c2.2,2.66,1.26,3.66,2.27,6.32s4.44,1.81,4.44,1.81s0.71,2.53,2.79,4.15c2.04,4.54,10.5,13.9,16.04,19.87
			c4.83,8.43,34.52,36.91,36.27,38.11c1.75,1.2,0.45,6.29,6.38,7.94c5.93,1.69,7.26,3.31,10.34,5.8c0.06,5.12,2.14,3.5,4.76,3.73
			c3.21,3.24,19.51,19.28,24.73,20.94c4.54,5.25,14.94,11.67,21.36,15.98c6.42,4.34,6.03,2.37,7.62,2.46
			c1.56,0.13,6.87,5.35,11.83,7.97c4.96,2.63,5.35,0.58,6.35,0.03c1-0.55,5.61,0.13,8.1,1.78c2.5,1.62,3.73-2.14,3.73-2.14
			c2.5,1.33,3.14-1.81,4.28-3.08s2.33,3.79,5.74,3.27c3.4-0.52,2.37-6.71,2.3-9.63c-0.06-2.92,9.95-9.11,14.52-7.97
			c4.57,1.13,8.01-3.53,5.8-6.22c-2.2-2.66-2.37-6.51-2.72-9.59c-0.36-3.08,5.12-11.89,7.91-13.64c2.79-1.75,5.8-4.76,8.07-6.74
			c2.27-1.98,17.4-3.66,18.96,0.16c1.56,3.82,3.34,6.81,5.77,9.01c2.43,2.2,4.08,7.13,4.08,7.13s5.7,9.85,6.84,12.77
			c0.62,2.85,9.07,17.95,9.07,17.95c0.32,0.1,4.31,3.27,5.15,10.31c4.18,9.04,9.37,20.87,9.56,21.88c0.62,3.69-0.1,2.04,2.46,7.52
			c2.56,5.44,5.19,4.12,5.19,4.12c3.01,2.46,3.66,1.56,5.32,1.65c1.65,0.1,2.79,4.83,4.31,2.69s4.63-2.56,5.96-1.65
			c1.33,0.94,6.9,1.85,8.85,0.52c1.94-1.33-0.94-2.79,0.94-2.88c1.88-0.1,1.04-4.83,0-6.58c-1.04-1.75-1.75-4.21-2.88-5.67
			c-1.13-1.43-16.37-26.64-21.29-38.99c-2.33-5.8,0.81-16.01,7.52-21.84c7.55-6.58,19.38-8.17,27.81-2.63
			c15.88,10.5,11.57,1.39,40.87-1.39c29.33-2.79,55.97-16.04,57.49-27.16c1.56-11.12,8.52-18.21,13.16-23.46
			c4.63-5.25,9.01-16.66,21.36-18.21c12.35-1.56,10.27-8.98,18.99-21.91c8.04-11.93,4.6-27.09,17.27-30.85
			c19.02-5.67,3.44-1.26,14.29-16.82c3.08-4.41,4.67-11.05,8.78-15.52c4.5-4.89,12.74-7.23,13.42-11.51
			c0.52-3.24-3.76-6.32-4.41-9.5c-2.72-13.09-10.11-10.27-10.63-17.76c-0.29-4.12,4.6-9.79,2.69-13.51
			c-7-13.55-1.36-20.45-11.31-15.69c-18.25,8.72-9.27-10.4-33.84-3.6c-16.53,4.57-7.1-18.02-27.35,10.34
			c-13.61,19.09-20.39,18.25-28.71,20.42c-8.33,2.17-2.43-3.27-20.39,23.76c-18.21,27.48-31.79,6.16-54.35,42.94
			c0,0-6.64,14.55-17.4,16.72c-9.43,1.91-8.04,34.77-12.32,40.93c-8.46,12.22-1.13,11.31-5.22,26.54
			c-0.65,2.46-1.2,12.15-4.12,17.86c-3.79,7.42-10.37,10.47-13.74,6.84c-2.63-2.85-9.04-4.54-2.46-10.7
			c0.62-0.58,8.23-6.64,11.93-16.46c5.9-15.59-0.81-40.93-23.66-39.93c-4.54,0.19-22.43,3.31-22.23,31.89
			C458.32,1145.39,475.11,1156.34,475.53,1156.5z"/>
		<path class="st2" d="M420.59,1109.61"/>
		<g>
			<path class="st1" d="M550.16,1144.12l-0.55-9.66c-3.21,0.26-6.42,0.45-9.66,0.58l0.55,9.66l6.87,118.33l0.58,9.66
				c3.24-0.16,6.45-0.42,9.66-0.65l-0.58-9.66L550.16,1144.12z"/>
			<path class="st1" d="M653.13,892.43c0.06-1.39,0.16-2.79,0.16-4.21c0-21.78-5.74-42.26-15.72-60.02L668,808.04
				c8.43,14.45,14.75,30.3,18.31,47.19c0.65,3.14,1.07,6.35,1.56,9.56l9.5-1.81l160.49-30.92c1.78,10.31,3.18,20.71,3.95,31.31
				c0.23,3.21,0.49,6.42,0.65,9.66l9.66-0.49l32.73-1.65l9.66-0.49c-0.16-3.24-0.42-6.45-0.65-9.66l-9.66,0.49l-32.73,1.65
				c-0.81-11.05-2.27-21.94-4.12-32.67l32.31-6.22l9.5-1.81c-0.55-3.18-1.07-6.35-1.72-9.53l-9.5,1.81l-32.41,6.25
				c-2.07-10.27-4.54-20.39-7.49-30.3l31.53-9.37l9.27-2.75c-0.94-3.11-1.88-6.16-2.88-9.24l-9.27,2.75l-31.5,9.33l-9.27,2.75
				c1,3.05,1.94,6.16,2.85,9.24c2.88,9.63,5.25,19.45,7.26,29.4l-160.23,30.89c-3.82-18.15-10.63-35.2-19.74-50.72
				c-1.65-2.79-3.37-5.48-5.19-8.17c-9.72-14.58-21.68-27.58-35.29-38.5l19.12-26.54c6.22,4.86,12.22,9.98,17.79,15.52
				c2.3,2.27,4.47,4.67,6.64,7.03l7.1-6.58l25.89-23.98c6.35,6.9,12.28,14.2,17.83,21.78c1.88,2.59,3.57,5.38,5.38,8.04l7.91-5.54
				l26.9-18.83c4.8,7.1,9.4,14.36,13.55,21.91c1.56,2.82,3.01,5.67,4.5,8.56l8.56-4.5l29.49-15.59c1.59,3.08,3.27,6.09,4.76,9.24
				c1.36,2.92,2.69,5.87,3.95,8.82l8.88-3.86l30.17-13.09l8.88-3.86c-1.3-2.95-2.63-5.9-3.99-8.82l-8.88,3.86l-30.14,13.09
				c-1.59-3.37-3.4-6.61-5.12-9.92c-1.46-2.88-2.88-5.77-4.44-8.59c-1.78-3.24-3.76-6.35-5.64-9.56l28.65-16.59l8.36-4.86
				c-1.65-2.79-3.31-5.54-5.02-8.26l-8.36,4.86l-28.55,16.56l-8.36,4.86c1.72,2.72,3.27,5.54,4.93,8.33
				c1.81,3.08,3.73,6.09,5.48,9.24l-29.52,15.62c-4.34-7.88-9.17-15.49-14.16-22.91c-1.81-2.69-3.6-5.35-5.48-7.97
				c-5.12-7.1-10.63-13.87-16.37-20.48l24.21-23.11c2.46,2.79,4.96,5.57,7.32,8.46c2.04,2.5,3.92,5.12,5.9,7.68l7.52-6.06
				L827,659.19l7.52-6.06c-1.98-2.56-3.95-5.09-5.96-7.58l-7.52,6.06l-25.67,20.71c-6.77-8.33-14.03-16.27-21.55-23.92l22.39-24.37
				l6.55-7.13c-2.27-2.3-4.63-4.47-6.97-6.71l-6.55,7.13l-22.3,24.31l-6.55,7.13c2.33,2.24,4.6,4.54,6.87,6.84
				c2.3,2.37,4.54,4.8,6.77,7.19l-24.11,23.01l-7,6.68c2.17,2.37,4.25,4.86,6.35,7.29c5.38,6.26,10.6,12.64,15.43,19.35
				l-26.77,18.73c-5.77-7.97-12.02-15.59-18.64-22.82c-2.17-2.37-4.47-4.67-6.74-6.94c-6.9-7-14.26-13.55-21.91-19.7l20.06-25.99
				l5.9-7.65l20.45-26.48l5.9-7.65l20.13-26.09l5.9-7.65c-2.53-2.01-5.02-4.02-7.62-5.96l-5.9,7.65l-20.22,26.19l-5.9,7.65
				l-20.45,26.48l-5.9,7.65l-20,25.89l-5.9,7.65c2.59,1.91,5.12,3.92,7.62,5.93c7.23,5.83,14.2,12.02,20.71,18.64l-25.8,23.89
				c-6.03-6.03-12.51-11.57-19.22-16.82c-2.53-1.98-5.12-3.89-7.75-5.77c-6.84-4.86-13.94-9.43-21.33-13.48l15.98-31.37l4.38-8.62
				l14.88-29.2l4.38-8.62l15.17-29.78c3.31,1.78,6.64,3.44,9.88,5.32c2.79,1.62,5.54,3.31,8.26,5.02l4.89-8.33l16.82-28.49
				l4.93-8.33c-2.75-1.69-5.54-3.27-8.33-4.89l-4.93,8.33l-16.76,28.39c-3.4-1.98-6.94-3.76-10.4-5.61
				c-2.85-1.52-5.61-3.14-8.52-4.6c-3.14-1.56-6.35-2.98-9.56-4.44l12.57-30.56l3.66-8.94c-2.95-1.33-5.83-2.72-8.82-3.99
				l-3.66,8.94l-12.54,30.53l-3.66,8.94c2.98,1.26,5.87,2.69,8.82,4.05c2.95,1.36,5.93,2.66,8.85,4.12l-15.3,30.04l-4.38,8.59
				l-14.84,29.14l-4.38,8.62l-15.95,31.31l-4.44,8.72c2.92,1.43,5.77,2.88,8.59,4.44c6.97,3.79,13.64,8.07,20.09,12.64l-19.06,26.45
				l-5.64,7.84c2.63,1.88,5.19,3.82,7.71,5.83c12.7,10.24,23.82,22.39,32.9,36.01l-30.3,20.09c-13.38-20-32.51-35.71-54.97-45.11
				c-2.95-1.23-6-2.3-9.07-3.31c-5.54-1.81-11.21-3.4-17.08-4.44l5.15-36.33l1.36-9.59l4.6-32.28l1.39-9.79l4.93-34.74l0.62-4.34
				l0.75-5.22l4.6-32.41c5.44,0.88,10.82,1.88,16.17,3.05c3.14,0.68,6.32,1.43,9.43,2.2l2.56-9.33l8.85-32.31
				c2.85,0.75,5.74,1.33,8.56,2.14c3.11,0.88,6.22,1.75,9.3,2.72l3.24-9.11l10.99-31.02l3.24-9.11c-3.08-0.97-6.16-1.88-9.27-2.79
				l-3.24,9.14l-11.02,31.08c-3.05-0.88-6.16-1.52-9.24-2.33c-3.11-0.81-6.22-1.65-9.4-2.37c-3.79-0.88-7.65-1.56-11.51-2.3
				l4.73-32.7l1.39-9.56c-3.18-0.58-6.32-1.2-9.53-1.72l-1.39,9.56l-4.73,32.67l-1.39,9.56c3.21,0.52,6.35,1.17,9.53,1.78
				c3.47,0.68,6.94,1.3,10.34,2.04l-8.88,32.44c-5.74-1.26-11.51-2.33-17.37-3.27c-3.18-0.52-6.38-0.94-9.59-1.33
				c-5.38-0.68-10.82-1.2-16.3-1.59l1.1-33.64l0.32-9.66l1.07-32.83l0.32-9.66c-3.21-0.19-6.45-0.29-9.66-0.42l-0.32,9.66
				l-1.07,32.7l-0.32,9.66l-1.1,33.74l-0.32,9.66c3.24,0.13,6.45,0.23,9.66,0.49c5.12,0.39,10.21,0.84,15.23,1.49l-4.6,32.31
				l-1.36,9.56l-4.96,34.84l-1.36,9.63l-4.63,32.51l-1.36,9.56l-5.15,36.27l-1.36,9.59c3.24,0.29,6.42,0.75,9.59,1.3
				c5.15,0.94,10.18,2.33,15.07,3.92l-11.05,29.78l-3.37,9.11c3.11,0.94,6.16,2.01,9.07,3.34c24.86,11.34,42.23,36.4,42.23,65.47
				c0,37.17-28.33,67.86-64.53,71.62c-2.46,0.26-4.96,0.39-7.45,0.39c-0.75,0-1.46-0.1-2.2-0.1l0.55,9.69l1.81,32.02l0.55,9.66
				l2.04,36.4l0.55,9.66l1.81,32.7l0.55,9.79c3.24-0.1,6.45-0.23,9.66-0.45c10.18-0.75,20.09-2.43,29.85-4.54l29.78,117.35
				c-5.25,1.23-10.57,2.4-15.91,3.34c-1.49,0.26-2.95,0.55-4.44,0.78l1.81,9.5l6.19,32.18l1.81,9.5c2.3-0.39,4.63-0.81,6.94-1.23
				c0.88-0.16,1.75-0.29,2.59-0.45l-1.81-9.5l-6.19-32.18l-0.03-0.16c10.44-2.07,20.74-4.54,30.82-7.52l9.88,31.37l2.92,9.24
				c3.08-0.91,6.16-1.88,9.24-2.85l-2.92-9.24l-9.85-31.31l-2.92-9.2c-3.05,1-6.16,1.91-9.24,2.82c-3.14,0.94-6.35,1.72-9.53,2.56
				l-29.69-117.03l-2.43-9.53c-3.11,0.84-6.29,1.39-9.43,2.07c-9.14,1.98-18.44,3.57-27.97,4.25l-1.81-32.7l-0.55-9.66l-2.04-36.4
				l-0.55-9.66l-1.81-31.86c41.29-4.05,73.67-38.92,73.67-81.25c0-33.22-19.96-61.84-48.52-74.54l11.05-29.78
				c20.51,8.65,38.02,23.04,50.27,41.39c1.78,2.69,3.47,5.44,5.02,8.26c8.98,16.24,14.1,34.87,14.1,54.67c0,1.23-0.1,2.46-0.13,3.66
				c-0.1,3.24-0.36,6.48-0.75,9.66c-0.84,6.87-2.24,13.58-4.21,20.03c-0.97,3.11-2.07,6.13-3.27,9.11
				c-6.45,15.88-16.27,30.08-28.75,41.45c-2.4,2.17-4.86,4.21-7.42,6.19l6.32,7.29l23.85,27.52l6.32,7.29l21.49,24.83l6.38,7.36
				l22.91,26.45c-6.19,5.06-12.54,9.92-19.22,14.39c-2.69,1.78-5.38,3.53-8.13,5.22l5.32,8.13l17.83,27.32
				c-4.86,3.05-9.76,6.06-14.81,8.82c-2.82,1.52-5.7,3.01-8.59,4.47l4.7,8.36l16.5,29.33c-3.14,1.62-6.29,3.27-9.5,4.76
				c-2.92,1.36-5.87,2.66-8.82,3.92l4.02,8.78l13.71,29.91l4.02,8.78c2.95-1.3,5.9-2.63,8.82-3.99l-4.02-8.78l-13.68-29.85
				c3.47-1.62,6.84-3.37,10.21-5.12c2.85-1.49,5.7-2.98,8.52-4.57c3.01-1.69,6.06-3.34,9.04-5.09l16.72,28.42l4.89,8.33
				c2.79-1.62,5.57-3.27,8.3-4.96l-4.89-8.33l-16.76-28.46l-4.89-8.33c-2.72,1.72-5.51,3.37-8.3,4.99c-2.92,1.72-5.9,3.34-8.88,4.99
				l-16.4-29.14c5.25-2.85,10.31-6,15.36-9.14c2.72-1.72,5.44-3.47,8.1-5.25c4.86-3.27,9.72-6.58,14.42-10.11l20.61,26.32l5.96,7.58
				l20.45,26.09l5.96,7.62c2.56-1.94,5.09-3.95,7.62-5.96l-5.96-7.62l-20.35-25.99l-5.96-7.58l-20.68-26.41l-5.96-7.62
				c-2.5,2.01-5.06,3.99-7.65,5.93c-4.47,3.37-9.11,6.51-13.74,9.63l-17.83-27.32c7.03-4.7,13.74-9.82,20.26-15.17
				c2.5-2.04,4.96-4.12,7.36-6.26c6.22-5.51,12.12-11.31,17.79-17.37l24.73,21.49l7.32,6.35l25.12,21.81
				c-2.46,2.69-4.76,5.57-7.32,8.17c-2.27,2.3-4.57,4.54-6.9,6.77l6.87,6.77l23.53,23.24l6.87,6.81c2.3-2.24,4.6-4.5,6.87-6.81
				l-6.87-6.81l-23.5-23.2c2.72-2.75,5.12-5.8,7.71-8.65c2.17-2.37,4.34-4.76,6.45-7.23c2.3-2.66,4.83-5.15,7.03-7.88l26.12,20.19
				l7.65,5.9c2.01-2.5,4.02-5.06,5.96-7.58l-7.65-5.9l-26.15-20.22l-7.62-5.9c-1.98,2.56-3.92,5.12-5.93,7.62
				c-2.11,2.59-4.5,4.96-6.68,7.49l-25.12-21.81l-7.32-6.35l-24.76-21.52l-7.29-6.32c-2.11,2.43-4.25,4.86-6.45,7.23
				c-5.35,5.7-10.95,11.21-16.82,16.4l-22.95-26.48l-6.38-7.36l-21.36-24.66l-6.32-7.29l-23.89-27.58
				c13.77-12.48,24.53-28.1,31.57-45.6l156.99,54.09c-3.92,10.63-8.23,21.07-13.35,31.08c-1.46,2.88-2.98,5.74-4.54,8.56l8.62,4.41
				l29.75,15.23c-1.75,3.14-3.37,6.35-5.22,9.46c-1.65,2.79-3.37,5.51-5.09,8.23l8.3,4.93l28.46,16.89l8.33,4.93
				c1.72-2.72,3.37-5.48,5.02-8.26l-8.33-4.93l-28.36-16.82c1.94-3.27,3.66-6.64,5.51-9.98c1.56-2.82,3.18-5.61,4.67-8.49
				c1.62-3.14,3.05-6.38,4.57-9.56l30.04,13.9l8.78,4.05c1.36-2.92,2.69-5.87,3.99-8.82l-8.78-4.05l-29.91-13.84l-8.78-4.05
				c-1.3,2.95-2.75,5.83-4.12,8.75c-1.46,3.08-2.85,6.19-4.41,9.2l-29.91-15.3c5.32-10.4,9.82-21.26,13.87-32.34
				c1.07-2.92,2.27-5.77,3.27-8.72l32.18,9.85l9.24,2.82l31.47,9.63l9.24,2.82c1-3.08,1.98-6.13,2.88-9.24l-9.24-2.82l-31.5-9.66
				l-9.24-2.82l-32.08-9.82c2.56-8.52,4.57-17.21,6.38-26.02l33.09,5.74l9.53,1.65l32.57,5.64l9.53,1.65
				c0.62-3.14,1.17-6.32,1.72-9.53l-9.53-1.65l-32.51-5.64l-9.53-1.65l-33.09-5.74l-9.53-1.65c-0.55,3.18-1.13,6.35-1.75,9.5
				c-1.72,8.39-3.66,16.72-6.09,24.86c-0.88,2.88-1.81,5.7-2.75,8.56l-157.05-54.12c2.27-7.29,3.82-14.88,4.73-22.65l251.75,13.61
				l9.66,0.52c0.23-3.21,0.52-6.42,0.65-9.66l-9.66-0.52L653.13,892.43z"/>
		</g>
	</g>
	<g>
		<g>
			<path class="st0" d="M1241.49,794.44v-11.6c23.83-2.51,25.39-4.7,25.39-32.92l-0.31-122.26
				c-22.57,53.92-47.34,113.48-69.91,166.78h-10.35c-20.38-51.1-42.63-109.41-65.21-164.27c-4.08,98.44-4.08,117.87-4.08,129.16
				c0.31,16.93,6.58,21.32,30.1,23.51v11.6h-77.75v-11.6c17.87-1.57,26.02-5.02,28.53-23.83c1.25-9.4,2.51-27.27,9.72-130.73
				c0.94-15.05-1.25-23.51-28.21-26.02v-11.6h67.71l60.5,138.25l60.82-138.25h66.15v11.6c-25.08,2.51-27.9,5.02-27.27,30.1
				l2.51,117.56c0.31,28.21,1.57,29.47,26.96,32.92v11.6H1241.49z"/>
			<path class="st0" d="M1436.44,794.44v-9.22c15.71-2.24,15.71-4.99,12.22-15.71c-2.49-7.48-6.48-18.7-10.22-28.67h-48.61
				c-2.74,7.73-6.23,17.2-8.73,24.93c-5.24,15.71,0.75,17.7,20.44,19.45v9.22h-61.58v-9.22c15.71-2,19.69-4.24,28.17-25.18
				l51.85-128.89l11.97-2.24c15.96,43.38,32.91,87.75,49.11,129.39c9.22,23.18,11.47,24.93,27.67,26.92v9.22H1436.44z
				 M1414.51,675.28c-7.23,17.95-14.21,34.65-20.44,52.85h39.64L1414.51,675.28z"/>
			<path class="st0" d="M1668.29,795.94c-1.5,0-4.49,0-7.48-0.25c-31.66-1.5-40.88-8.23-48.36-18.7
				c-9.97-13.71-17.2-28.92-25.68-43.88c-3.74-6.73-7.23-8.23-15.21-8.23l-4.99-0.25v36.4c0,20.19,2.49,21.94,21.19,24.18v9.22
				h-76.29v-9.22c18.95-2,21.19-3.99,21.19-24.18v-95.48c0-19.69-2.49-22.44-21.19-23.93v-9.22h72.3c22.19,0,34.9,2.49,45.12,9.47
				c9.97,6.73,16.7,17.7,16.7,33.16c0,22.19-14.71,33.9-31.16,40.39c3.74,7.48,13.46,23.68,20.94,35.15
				c8.73,13.71,14.21,20.44,18.95,25.93c5.73,6.48,8.48,8.48,15.71,10.97L1668.29,795.94z M1573.31,714.42
				c10.72,0,18.95-1.74,24.43-6.48c8.23-6.98,11.72-16.45,11.72-29.17c0-26.43-15.21-35.9-29.17-35.9c-6.73,0-9.97,1-11.47,2.49
				c-1.75,1.5-2.24,4.49-2.24,9.47v59.58H1573.31z"/>
			<path class="st0" d="M1674.03,794.44v-9.22c18.95-1.75,21.19-3.24,21.19-24.18v-94.98c0-20.94-2.49-22.94-21.19-24.43v-9.22
				h77.03v9.22c-18.7,1.75-21.19,3.49-21.19,24.43v94.98c0,20.69,2.24,22.19,21.19,24.18v9.22H1674.03z"/>
			<path class="st0" d="M1944.77,641.62c-15.21,1.99-19.94,5.24-20.69,16.45c-0.75,9.72-1.5,18.2-1.5,39.89v99.22h-13.96
				l-103.96-124.65v56.34c0,21.69,0.5,31.41,1.25,38.64c1,10.97,6.23,16.7,24.68,17.7v9.22h-61.83v-9.22
				c14.21-1.25,20.44-4.99,21.94-16.7c1-8.97,1.5-17.95,1.5-39.64v-59.08c0-8.23-0.5-13.71-5.24-20.19
				c-4.49-6.23-10.47-6.98-20.94-7.98v-9.22h48.61l94.98,110.44v-44.87c0-21.69-0.25-29.92-1-39.14
				c-0.75-10.72-4.74-15.96-25.43-17.2v-9.22h61.58V641.62z"/>
			<path class="st0" d="M2094.85,752.06c-1.25,6.73-8.23,35.4-10.47,42.38h-129.39v-8.97c22.69-2.24,24.18-3.49,24.18-24.43v-95.23
				c0-21.19-2.99-22.69-19.94-24.18v-9.22h81.02c26.18,0,34.9-0.25,38.39-0.5c0.25,4.49,1.5,24.93,2.49,40.39l-9.72,1.25
				c-2.24-8.48-6.48-18.7-10.72-23.18c-4.49-4.99-7.73-6.48-20.44-6.48h-16.21c-9.47,0-10.47,0.5-10.47,8.97v52.1h24.43
				c13.96,0,16.45-3.74,20.19-21.44h9.72v55.59h-9.72c-3.99-18.45-5.98-21.44-20.44-21.44h-24.18v42.88
				c0,17.2,0.5,22.44,15.96,22.69h17.7c13.96,0,17.7-1.75,23.19-8.48c6.23-7.23,11.22-16.45,15.21-24.93L2094.85,752.06z"/>
			<path class="st0" d="M2270.44,590.67c24.77,0,43.58,4.39,56.43,12.85c15.67,10.35,24.45,25.39,24.45,47.02
				c0,45.46-38.56,64.58-72.1,64.89c-3.13,0-7.21-0.31-9.4-0.63l-18.18-4.7v42.63c0,26.33,2.19,27.59,29.47,30.09v11.6h-99.69v-11.6
				c23.51-2.82,26.65-3.76,26.65-30.09V633c0-26.33-3.13-29.15-26.65-30.72v-11.6H2270.44z M2251.63,696.95
				c3.76,1.88,10.03,3.14,16.62,3.14c14.42,0,37.93-8.46,37.93-49.85c0-35.11-19.12-46.71-39.5-46.71c-6.58,0-10.35,1.57-12.23,3.13
				c-2.19,1.88-2.82,5.02-2.82,9.72V696.95z"/>
			<path class="st0" d="M2550,641.62c-19.45,1.99-21.19,3.49-21.19,24.18v95.48c0,20.69,2,22.19,21.19,23.93v9.22h-77.03v-9.22
				c19.69-2.49,21.19-3.24,21.19-23.93v-46.87h-67.31v46.87c0,20.69,2.24,21.94,20.94,23.93v9.22H2371v-9.22
				c18.45-2,21.19-3.24,21.19-23.93v-95.48c0-20.69-2.24-22.69-21.19-24.18v-9.22h76.78v9.22c-18.95,1.75-20.94,3.49-20.94,24.18
				v35.65h67.31v-35.65c0-20.69-2.49-22.19-21.19-24.18v-9.22H2550V641.62z"/>
			<path class="st0" d="M2713.79,641.62c-15.96,1.75-21.69,5.24-30.66,20.44c-8.97,15.46-16.7,29.17-28.92,54.1
				c-1.99,3.99-2.74,6.98-2.74,13.21v30.91c0,21.69,1.99,22.44,22.44,24.93v9.22h-78.78v-9.22c19.69-2.49,21.44-3.24,21.44-24.93
				v-28.67c0-5.48-1-7.98-2.74-11.47c-7.23-14.71-16.45-31.41-31.41-57.59c-9.22-16.2-12.96-19.44-27.42-20.94v-9.22h73.04v9.22
				c-16.7,2.24-16.21,5.48-11.97,14.21c8.23,16.2,18.95,36.15,28.42,54.35c7.48-13.96,19.45-37.89,26.43-53.1
				c4.74-9.97,2.74-13.21-15.21-15.46v-9.22h58.09V641.62z"/>
			<path class="st0" d="M2867.36,751.56c-3.49,12.47-9.97,31.41-13.96,40.14c-6.48,1.5-26.92,6.48-45.87,6.48
				c-67.06,0-94.73-43.13-94.73-82.77c0-51.6,39.39-86.51,99.22-86.51c21.69,0,40.88,5.24,47.12,5.98
				c1.25,11.72,2.99,30.17,4.74,41.13l-9.97,1.75c-5.24-19.45-12.71-28.67-25.93-33.9c-5.98-2.49-14.96-3.49-21.69-3.49
				c-36.15,0-54.35,30.17-54.35,69.31c0,45.62,23.43,76.53,57.59,76.53c20.94,0,34.9-10.97,48.36-38.39L2867.36,751.56z"/>
			<path class="st0" d="M2974.31,628.91c46.12,0,83.76,33.66,83.76,82.77c0,53.1-37.89,86.51-85.01,86.51
				c-49.86,0-86.01-36.4-86.01-84.51C2887.05,671.04,2917.47,628.91,2974.31,628.91z M2970.57,639.88
				c-25.43,0-44.13,24.93-44.13,69.06c0,42.13,16.7,78.28,50.36,78.28c23.68,0,42.13-22.94,42.13-68.56
				C3018.93,669.3,2999.49,639.88,2970.57,639.88z"/>
			<path class="st0" d="M3210.64,750.57c-1.99,10.72-8.97,37.15-11.22,43.88h-123.65v-9.22c21.94-1.5,23.93-3.24,23.93-24.18v-94.98
				c0-20.94-2.49-22.94-21.19-24.43v-9.22h77.78v9.22c-19.45,1.75-21.94,3.49-21.94,24.43v96.73c0,13.71,0.5,19.94,14.21,20.19
				c0.5,0.25,11.97,0.25,12.96,0.25c14.21,0,17.95-2.99,23.93-9.72c4.74-4.99,11.22-15.71,15.71-25.93L3210.64,750.57z"/>
			<path class="st0" d="M3312.61,628.91c46.12,0,83.76,33.66,83.76,82.77c0,53.1-37.89,86.51-85.01,86.51
				c-49.86,0-86.01-36.4-86.01-84.51C3225.35,671.04,3255.77,628.91,3312.61,628.91z M3308.87,639.88
				c-25.43,0-44.13,24.93-44.13,69.06c0,42.13,16.7,78.28,50.36,78.28c23.68,0,42.13-22.94,42.13-68.56
				C3357.23,669.3,3337.79,639.88,3308.87,639.88z"/>
			<path class="st0" d="M3584.34,726.14c-14.21,2.49-15.96,3.49-15.96,20.44v19.2c0,8.97,0.25,17.45,1.5,24.18
				c-12.71,2.24-40.14,8.23-60.33,8.23c-58.58,0-92.24-35.65-92.24-85.01c0-56.09,45.62-84.26,98.72-84.26
				c20.19,0,42.13,4.99,50.36,5.73c0.5,10.97,2.49,29.92,4.24,43.63l-9.72,1.75c-5.98-21.19-15.21-31.91-30.66-37.15
				c-5.73-1.99-14.96-2.99-21.19-2.99c-30.17,0-52.85,26.18-52.85,69.06c0,43.88,15.46,78.53,56.34,78.53
				c4.99,0,11.47-0.75,15.96-3.49c3.74-2.24,5.73-6.48,5.73-14.21v-21.94c0-17.45-3.49-19.2-24.43-21.69v-9.22h74.54V726.14z"/>
			<path class="st0" d="M3745.64,641.62c-15.96,1.75-21.69,5.24-30.66,20.44c-8.97,15.46-16.7,29.17-28.92,54.1
				c-1.99,3.99-2.74,6.98-2.74,13.21v30.91c0,21.69,1.99,22.44,22.44,24.93v9.22h-78.78v-9.22c19.69-2.49,21.44-3.24,21.44-24.93
				v-28.67c0-5.48-1-7.98-2.74-11.47c-7.23-14.71-16.45-31.41-31.41-57.59c-9.22-16.2-12.96-19.44-27.42-20.94v-9.22h73.04v9.22
				c-16.7,2.24-16.21,5.48-11.97,14.21c8.23,16.2,18.95,36.15,28.42,54.35c7.48-13.96,19.45-37.89,26.43-53.1
				c4.74-9.97,2.74-13.21-15.21-15.46v-9.22h58.09V641.62z"/>
		</g>
	</g>
	<g>
		<g>
			<path class="st0" d="M1341.79,1114.88c-3.89,20.91-17.5,72.44-21.88,85.56h-241.14v-17.99c42.78-2.92,46.67-6.32,46.67-47.16
				V950.07c0-40.84-4.86-44.73-41.32-47.64v-17.99h151.68v17.99c-37.92,3.4-42.78,6.81-42.78,47.64v188.63
				c0,26.74,0.97,38.89,27.71,39.38c0.97,0.49,23.34,0.49,25.28,0.49c27.71,0,35-5.83,46.67-18.96
				c9.24-9.72,21.88-30.63,30.63-50.56L1341.79,1114.88z"/>
			<path class="st0" d="M1496.02,1200.45v-15.13c25.76-3.68,25.76-8.18,20.03-25.76c-4.09-12.27-10.63-30.67-16.76-47.02h-79.73
				c-4.5,12.68-10.22,28.21-14.31,40.89c-8.59,25.76,1.23,29.03,33.53,31.89v15.13h-100.99v-15.13c25.76-3.27,32.3-6.95,46.2-41.3
				l85.05-211.39l19.63-3.68c26.17,71.14,53.97,143.92,80.55,212.21c15.13,38.03,18.81,40.89,45.39,44.16v15.13H1496.02z
				 M1460.04,1005c-11.86,29.44-23.31,56.83-33.53,86.68h65.01L1460.04,1005z"/>
			<path class="st0" d="M1773.17,1057.55c41.91,7.58,71.45,27.54,71.45,65.46c0,24.75-15.57,47.9-38.32,60.67
				c-20.36,11.18-46.3,16.76-75.84,16.76H1618.7v-14.77c30.73-3.19,33.93-5.19,33.93-38.72V994.88c0-33.53-5.19-37.12-33.53-39.12
				V941h121.34c30.34,0,49.5,3.99,65.46,13.97c14.77,9.58,24.35,24.75,24.35,44.31C1830.25,1032.4,1799.12,1052.36,1773.17,1057.55z
				 M1722.48,1052.36c37.92,0,51.89-16.37,51.89-45.9c0-34.73-22.75-47.9-44.71-47.9c-9.58,0-15.57,1.2-18.76,3.19
				c-4.39,2.79-3.99,6.39-3.99,14.77v75.84H1722.48z M1706.91,1146.16c0,28.74,13.17,37.52,34.73,37.12
				c21.95-0.4,43.51-19.56,43.51-56.68c0-38.72-19.56-57.08-64.26-57.08h-13.97V1146.16z"/>
			<path class="st0" d="M2017.06,935.41c73.84,0,134.12,53.89,134.12,132.52c0,85.02-60.67,138.51-136.11,138.51
				c-79.83,0-137.71-58.28-137.71-135.31C1877.35,1002.86,1926.05,935.41,2017.06,935.41z M2011.07,952.97
				c-40.71,0-70.65,39.92-70.65,110.57c0,67.46,26.74,125.33,80.63,125.33c37.92,0,67.46-36.72,67.46-109.77
				C2088.5,1000.07,2057.37,952.97,2011.07,952.97z"/>
			<path class="st0" d="M2434.97,1202.84c-2.39,0-7.18,0-11.97-0.4c-50.69-2.4-65.46-13.17-77.44-29.94
				c-15.97-21.95-27.54-46.3-41.11-70.25c-5.99-10.78-11.58-13.17-24.35-13.17l-7.98-0.4v58.28c0,32.33,3.99,35.13,33.93,38.72
				v14.77H2183.9v-14.77c30.34-3.19,33.93-6.39,33.93-38.72V994.08c0-31.53-3.99-35.92-33.93-38.32V941h115.75
				c35.53,0,55.88,3.99,72.25,15.17c15.97,10.78,26.74,28.34,26.74,53.09c0,35.53-23.55,54.29-49.89,64.66
				c5.99,11.97,21.55,37.92,33.53,56.28c13.97,21.95,22.75,32.73,30.34,41.51c9.18,10.38,13.57,13.57,25.15,17.56L2434.97,1202.84z
				 M2282.89,1072.32c17.16,0,30.33-2.79,39.12-10.38c13.17-11.18,18.76-26.34,18.76-46.7c0-42.31-24.35-57.48-46.7-57.48
				c-10.78,0-15.97,1.6-18.36,3.99c-2.79,2.39-3.59,7.18-3.59,15.17v95.4H2282.89z"/>
			<path class="st0" d="M2570.68,1200.45v-14.77c25.15-3.59,25.15-7.98,19.56-25.15c-3.99-11.97-10.38-29.94-16.37-45.9h-77.83
				c-4.39,12.37-9.98,27.54-13.97,39.92c-8.38,25.15,1.2,28.34,32.73,31.13v14.77h-98.59v-14.77c25.15-3.19,31.53-6.79,45.1-40.31
				L2544.34,939l19.16-3.59c25.55,69.45,52.69,140.5,78.63,207.16c14.77,37.12,18.36,39.92,44.31,43.11v14.77H2570.68z
				 M2535.56,1009.65c-11.58,28.74-22.75,55.48-32.73,84.62h63.47L2535.56,1009.65z"/>
			<path class="st0" d="M2909.56,1010.05c-4.39-18.36-13.17-33.53-17.16-39.12c-7.18-8.38-10.38-11.58-33.93-11.58h-25.55v187.6
				c0,33.53,3.99,35.92,39.52,38.72v14.77h-132.52v-14.77c33.93-2.79,37.52-5.19,37.52-38.72v-187.6h-24.35
				c-22.35,0-28.74,3.59-36.32,13.17c-5.59,7.58-11.18,21.95-16.37,37.92h-15.17c2.79-29.14,5.59-60.27,6.39-79.43h11.97
				c5.99,9.18,10.78,9.98,22.75,9.98h159.66c10.78,0,16.37-2.4,23.15-9.98h11.58c0.4,16.76,2,51.89,3.99,77.84L2909.56,1010.05z"/>
			<path class="st0" d="M3091.18,935.41c73.84,0,134.12,53.89,134.12,132.52c0,85.02-60.67,138.51-136.11,138.51
				c-79.83,0-137.71-58.28-137.71-135.31C2951.47,1002.86,3000.17,935.41,3091.18,935.41z M3085.19,952.97
				c-40.71,0-70.65,39.92-70.65,110.57c0,67.46,26.74,125.33,80.63,125.33c37.92,0,67.46-36.72,67.46-109.77
				C3162.62,1000.07,3131.49,952.97,3085.19,952.97z"/>
			<path class="st0" d="M3509.09,1202.84c-2.39,0-7.18,0-11.97-0.4c-50.69-2.4-65.46-13.17-77.44-29.94
				c-15.97-21.95-27.54-46.3-41.11-70.25c-5.99-10.78-11.58-13.17-24.35-13.17l-7.98-0.4v58.28c0,32.33,3.99,35.13,33.93,38.72
				v14.77h-122.14v-14.77c30.34-3.19,33.93-6.39,33.93-38.72V994.08c0-31.53-3.99-35.92-33.93-38.32V941h115.75
				c35.53,0,55.88,3.99,72.25,15.17c15.97,10.78,26.74,28.34,26.74,53.09c0,35.53-23.55,54.29-49.89,64.66
				c5.99,11.97,21.55,37.92,33.53,56.28c13.97,21.95,22.75,32.73,30.34,41.51c9.18,10.38,13.57,13.57,25.15,17.56L3509.09,1202.84z
				 M3357.01,1072.32c17.16,0,30.33-2.79,39.12-10.38c13.17-11.18,18.76-26.34,18.76-46.7c0-42.31-24.35-57.48-46.7-57.48
				c-10.78,0-15.97,1.6-18.36,3.99c-2.79,2.39-3.59,7.18-3.59,15.17v95.4H3357.01z"/>
			<path class="st0" d="M3748.58,955.76c-25.55,2.79-34.73,8.38-49.1,32.73c-14.37,24.75-26.74,46.7-46.3,86.62
				c-3.19,6.39-4.39,11.18-4.39,21.16v49.5c0,34.73,3.19,35.92,35.92,39.92v14.77h-126.13v-14.77c31.53-3.99,34.33-5.19,34.33-39.92
				v-45.9c0-8.78-1.6-12.77-4.39-18.36c-11.58-23.55-26.34-50.29-50.29-92.2c-14.77-25.95-20.76-31.13-43.91-33.53V941h116.95v14.77
				c-26.74,3.59-25.94,8.78-19.16,22.75c13.17,25.94,30.34,57.88,45.5,87.02c11.97-22.35,31.13-60.67,42.31-85.02
				c7.58-15.97,4.39-21.16-24.35-24.75V941h93V955.76z"/>
		</g>
	</g>
</g>
</svg>
